<svg width="400" height="400" viewBox="0 0 400 400" fill="none" xmlns="http://www.w3.org/2000/svg">
<rect width="400" height="400" fill="#005533"/>
<path d="M216.381 100.051C216.756 100.016 216.859 99.9215 217.041 100.138C219.272 102.765 221.582 106.521 223.552 109.286L238.425 129.752C240.011 131.894 241.894 134.719 243.461 136.716L231.458 136.866C231.663 141.483 231.358 146.335 231.104 150.954C229.953 171.782 222.827 191.968 208.756 207.511C194.949 223.167 176.595 232.809 157.375 240.182C150.822 242.695 142.41 246.118 136.906 250.452C131.058 255.057 125.345 264.335 123.685 271.576C121.659 280.413 122.243 290.857 122.316 299.933L92.7974 299.816C92.8636 292.828 92.6895 285.425 93.1655 278.547C94.3455 261.506 101.99 244.765 114.266 232.849C122.923 224.445 134.01 218.675 145.187 214.307C149.763 212.519 154.389 210.896 158.893 208.855C162.587 207.167 166.178 205.261 169.646 203.147C175.982 199.357 182.029 194.785 186.789 189.09C187.262 188.523 189.062 186.145 189.422 185.89C198.219 173.228 201.388 162.466 202.27 146.924C202.458 143.618 202.234 140.23 202.344 136.904C198.733 136.72 194.359 136.768 190.691 136.706C191.669 134.673 193.665 131.959 194.981 130.075L201.81 120.394L210.852 107.568C212.486 105.269 214.582 102.156 216.381 100.051Z" fill="white"/>
<path d="M280.625 141.643C282.259 142.679 284.725 145.202 286.2 146.64L296.086 156.436L302.612 162.878C304.499 164.711 307.069 166.34 307.116 169.065C307.199 173.738 307.146 178.408 307.15 183.082C307.103 185.652 307.35 191.039 307.116 193.335C307.28 197.051 307.157 201.695 307.152 205.468L307.125 227.519L307.17 299.882C301.032 299.924 294.892 299.926 288.754 299.893C285.1 299.884 281.391 299.965 277.746 299.787C278.028 274.03 277.532 248.023 277.732 222.245C277.817 211.46 277.425 199.756 277.784 189.057C276.325 190.202 271.668 195.731 270.136 197.473C264.004 204.425 257.925 211.424 251.898 218.468C250.621 219.945 246.42 224.972 245.02 225.9C243.952 225.765 222.97 205.955 221.24 203.74C222.22 201.833 225.091 197.486 226.386 195.284C230.677 187.987 232.025 183.101 234.615 175.231C237.706 178.131 240.7 181.133 243.592 184.233C244.223 183.293 245.713 181.368 246.564 180.624C247.462 179.326 249.728 176.93 250.877 175.602L260.005 165.052C264.778 159.485 269.592 153.956 274.451 148.464C275.766 146.978 279.186 142.883 280.625 141.643Z" fill="white"/>
<path d="M142.626 132.096C160.111 130.393 178.74 138.746 189.306 152.594C191.062 154.897 193.426 157.687 192.822 160.749C191.036 169.802 186.532 178.599 180.191 185.316C177.556 188.114 174.597 190.407 171.536 192.735C172.055 183.85 170.655 176.115 164.174 169.362C154.929 159.729 138.817 159.942 129.463 169.355C121.369 177.498 122.296 187.284 122.42 197.803C122.434 204.198 122.368 210.593 122.22 216.986C121.518 217.644 119.622 218.881 118.753 219.494C116.765 220.884 114.828 222.346 112.945 223.876C104.573 230.786 98.2301 240.091 92.8866 249.425C93.2255 244.371 92.9472 236.441 92.9256 231.121L92.8707 199.507C92.8329 190.344 92.2966 181.919 94.3858 172.959C96.1425 165.464 99.5399 158.452 104.334 152.428C113.946 140.217 127.434 133.916 142.626 132.096Z" fill="white"/>
<path d="M216.195 210.83C218.336 212.663 220.228 214.645 222.273 216.573C225.37 219.493 228.516 222.334 231.42 225.453C233.28 226.98 235.66 229.333 237.504 231.049C239.677 233.072 243.561 236.384 245.388 238.651C245.783 240.715 245.68 247.47 245.64 249.815C245.584 253.083 245.776 257.443 245.606 260.558C245.669 269.234 245.678 277.911 245.637 286.586C245.629 290.39 245.456 296.16 245.783 299.789C241.851 300.056 237.163 299.895 233.177 299.909C227.529 299.931 221.81 299.96 216.168 299.825C216.318 295.762 216.215 291.104 216.218 286.974L216.229 262.728C216.231 245.618 216.478 227.892 216.195 210.83Z" fill="white"/>
<path d="M169.185 243.759C173.756 241.595 179.669 238.268 184.026 236.396C183.875 242.382 184.063 248.469 183.985 254.456C183.959 256.456 184.106 260.442 183.93 262.311C184.015 263.887 183.992 265.67 183.966 267.253C183.789 278.069 184.267 289.021 183.973 299.817C182.699 299.906 181.176 299.931 179.889 299.897C171.515 299.675 162.688 300.31 154.356 299.789L154.44 260.824C154.472 257.145 154.393 253.443 154.488 249.77C159.101 247.65 164.112 246.187 169.185 243.759Z" fill="white"/>
</svg>
