<svg width="215" height="200" viewBox="0 0 215 200" fill="none" xmlns="http://www.w3.org/2000/svg">
<path d="M123.599 0.0511579C123.974 0.0155421 124.077 -0.0784834 124.259 0.137826C126.49 2.76452 128.801 6.5212 130.77 9.28626L145.644 29.7524C147.229 31.8944 149.112 34.7193 150.679 36.7161L138.676 36.866C138.882 41.4831 138.577 46.3353 138.322 50.9543C137.172 71.7819 130.045 91.968 115.975 107.511C102.167 123.167 83.8129 132.809 64.5935 140.182C58.0403 142.695 49.6281 146.118 44.124 150.452C38.2759 155.057 32.5636 164.335 30.9033 171.576C28.877 180.413 29.461 190.857 29.5345 199.933L0.015625 199.816C0.0818204 192.828 -0.0922328 185.425 0.383761 178.547C1.56374 161.506 9.20867 144.765 21.484 132.849C30.141 124.445 41.2287 118.675 52.4052 114.307C56.9808 112.519 61.6068 110.896 66.1108 108.855C69.8053 107.167 73.3962 105.261 76.8647 103.147C83.2002 99.3571 89.2471 94.7846 94.0072 89.0897C94.4805 88.5234 96.2802 86.145 96.6404 85.8898C105.438 73.2283 108.607 62.4659 109.489 46.9242C109.676 43.6184 109.453 40.2299 109.563 36.9042C105.952 36.7201 101.577 36.7675 97.9094 36.7062C98.8874 34.6726 100.883 31.9586 102.2 30.075L109.029 20.3942L118.071 7.56826C119.705 5.26857 121.801 2.15617 123.599 0.0511579Z" fill="#005533"/>
<path d="M187.843 41.6433C189.477 42.6786 191.943 45.2018 193.418 46.6396L203.304 56.4362L209.83 62.8777C211.717 64.7115 214.287 66.3399 214.334 69.0653C214.417 73.7384 214.365 78.408 214.368 83.082C214.321 85.6523 214.568 91.0386 214.334 93.3348C214.498 97.0515 214.375 101.695 214.37 105.468L214.343 127.519L214.388 199.882C208.25 199.924 202.11 199.926 195.972 199.893C192.318 199.884 188.61 199.965 184.965 199.787C185.246 174.03 184.75 148.023 184.95 122.245C185.035 111.46 184.643 99.7563 185.002 89.0572C183.543 90.2015 178.886 95.7311 177.355 97.4729C171.222 104.425 165.144 111.424 159.116 118.468C157.839 119.945 153.638 124.972 152.238 125.9C151.171 125.765 130.188 105.955 128.458 103.74C129.438 101.833 132.309 97.4859 133.604 95.2842C137.895 87.9867 139.243 83.1011 141.833 75.2312C144.924 78.131 147.919 81.1331 150.81 84.2329C151.441 83.2926 152.931 81.3685 153.782 80.6235C154.681 79.326 156.946 76.9303 158.095 75.6022L167.223 65.0518C171.996 59.4853 176.81 53.9559 181.669 48.4639C182.984 46.9781 186.404 42.8827 187.843 41.6433Z" fill="#005533"/>
<path d="M49.8438 32.0962C67.3297 30.3929 85.9584 38.7459 96.5238 52.5941C98.2805 54.8966 100.644 57.6874 100.04 60.7485C98.2545 69.8016 93.7503 78.599 87.4096 85.3156C84.7746 88.1139 81.8149 90.4072 78.7541 92.7353C79.2737 83.8503 77.8737 76.1154 71.3923 69.3621C62.1468 59.7289 46.0353 59.9419 36.6808 69.3547C28.5875 77.4984 29.5142 87.284 29.6383 97.803C29.6526 104.198 29.5858 110.593 29.4385 116.986C28.7359 117.644 26.8404 118.881 25.9714 119.494C23.9832 120.884 22.0459 122.346 20.163 123.876C11.7908 130.786 5.44831 140.091 0.104881 149.425C0.443794 144.371 0.165485 136.441 0.143841 131.121L0.0890061 99.5066C0.0511286 90.3444 -0.48511 81.9185 1.6041 72.9589C3.36072 65.4641 6.75815 58.452 11.552 52.428C21.1642 40.2171 34.6526 33.9157 49.8438 32.0962Z" fill="#005533"/>
<path d="M123.413 110.83C125.554 112.663 127.446 114.645 129.492 116.573C132.589 119.493 135.734 122.334 138.638 125.453C140.498 126.98 142.879 129.333 144.722 131.049C146.896 133.072 150.779 136.384 152.606 138.651C153.001 140.715 152.898 147.47 152.859 149.815C152.803 153.083 152.994 157.443 152.824 160.558C152.887 169.234 152.896 177.911 152.855 186.586C152.848 190.39 152.675 196.16 153.001 199.789C149.069 200.056 144.381 199.895 140.395 199.909C134.748 199.931 129.028 199.96 123.386 199.825C123.536 195.762 123.433 191.104 123.437 186.974L123.448 162.728C123.449 145.618 123.696 127.892 123.413 110.83Z" fill="#005533"/>
<path d="M76.4031 143.759C80.9738 141.595 86.8878 138.268 91.2446 136.396C91.0931 142.382 91.2817 148.469 91.2033 154.456C91.1771 156.456 91.3245 160.442 91.1484 162.311C91.2332 163.887 91.2099 165.67 91.1841 167.253C91.007 178.069 91.4852 189.021 91.191 199.817C89.9169 199.906 88.3947 199.931 87.1073 199.897C78.7329 199.675 69.9064 200.31 61.5742 199.789L61.6585 160.824C61.69 157.145 61.611 153.443 61.7066 149.77C66.3195 147.65 71.3298 146.187 76.4031 143.759Z" fill="#005533"/>
</svg>
