<svg width="644" height="366" viewBox="0 0 644 366" fill="none" xmlns="http://www.w3.org/2000/svg">
<path d="M339.599 0.0511579C339.974 0.0155421 340.077 -0.0784834 340.259 0.137826C342.49 2.76452 344.801 6.5212 346.77 9.28626L361.644 29.7524C363.229 31.8944 365.112 34.7193 366.679 36.7161L354.676 36.866C354.882 41.4831 354.577 46.3353 354.322 50.9543C353.172 71.7819 346.045 91.968 331.975 107.511C318.167 123.167 299.813 132.809 280.594 140.182C274.04 142.695 265.628 146.118 260.124 150.452C254.276 155.057 248.564 164.335 246.903 171.576C244.877 180.413 245.461 190.857 245.534 199.933L216.016 199.816C216.082 192.828 215.908 185.425 216.384 178.547C217.564 161.506 225.209 144.765 237.484 132.849C246.141 124.445 257.229 118.675 268.405 114.307C272.981 112.519 277.607 110.896 282.111 108.855C285.805 107.167 289.396 105.261 292.865 103.147C299.2 99.3571 305.247 94.7846 310.007 89.0897C310.48 88.5234 312.28 86.145 312.64 85.8898C321.438 73.2283 324.607 62.4659 325.489 46.9242C325.676 43.6184 325.453 40.2299 325.563 36.9042C321.952 36.7201 317.577 36.7675 313.909 36.7062C314.887 34.6726 316.883 31.9586 318.2 30.075L325.029 20.3942L334.071 7.56826C335.705 5.26857 337.801 2.15617 339.599 0.0511579Z" fill="#005533"/>
<path d="M403.843 41.6433C405.477 42.6786 407.943 45.2018 409.418 46.6396L419.304 56.4362L425.83 62.8777C427.717 64.7115 430.287 66.3399 430.334 69.0653C430.417 73.7384 430.365 78.408 430.368 83.082C430.321 85.6523 430.568 91.0386 430.334 93.3348C430.498 97.0515 430.375 101.695 430.37 105.468L430.343 127.519L430.388 199.882C424.25 199.924 418.11 199.926 411.972 199.893C408.318 199.884 404.61 199.965 400.965 199.787C401.246 174.03 400.75 148.023 400.95 122.245C401.035 111.46 400.643 99.7563 401.002 89.0572C399.543 90.2015 394.886 95.7311 393.355 97.4729C387.222 104.425 381.144 111.424 375.116 118.468C373.839 119.945 369.638 124.972 368.238 125.9C367.171 125.765 346.188 105.955 344.458 103.74C345.438 101.833 348.309 97.4859 349.604 95.2842C353.895 87.9867 355.243 83.1011 357.833 75.2312C360.924 78.131 363.919 81.1331 366.81 84.2329C367.441 83.2926 368.931 81.3685 369.782 80.6235C370.681 79.326 372.946 76.9303 374.095 75.6022L383.223 65.0518C387.996 59.4853 392.81 53.9559 397.669 48.4639C398.984 46.9781 402.404 42.8827 403.843 41.6433Z" fill="#005533"/>
<path d="M265.844 32.0962C283.33 30.3929 301.958 38.7459 312.524 52.5941C314.28 54.8966 316.644 57.6874 316.04 60.7485C314.254 69.8016 309.75 78.599 303.41 85.3156C300.775 88.1139 297.815 90.4072 294.754 92.7353C295.274 83.8503 293.874 76.1154 287.392 69.3621C278.147 59.7289 262.035 59.9419 252.681 69.3547C244.587 77.4984 245.514 87.284 245.638 97.803C245.653 104.198 245.586 110.593 245.438 116.986C244.736 117.644 242.84 118.881 241.971 119.494C239.983 120.884 238.046 122.346 236.163 123.876C227.791 130.786 221.448 140.091 216.105 149.425C216.444 144.371 216.165 136.441 216.144 131.121L216.089 99.5066C216.051 90.3444 215.515 81.9185 217.604 72.9589C219.361 65.4641 222.758 58.452 227.552 52.428C237.164 40.2171 250.653 33.9157 265.844 32.0962Z" fill="#005533"/>
<path d="M339.413 110.83C341.554 112.663 343.446 114.645 345.492 116.573C348.589 119.493 351.734 122.334 354.638 125.453C356.498 126.98 358.879 129.333 360.722 131.049C362.896 133.072 366.779 136.384 368.606 138.651C369.001 140.715 368.898 147.47 368.859 149.815C368.803 153.083 368.994 157.443 368.824 160.558C368.887 169.234 368.896 177.911 368.855 186.586C368.848 190.39 368.675 196.16 369.001 199.789C365.069 200.056 360.381 199.895 356.395 199.909C350.748 199.931 345.028 199.96 339.386 199.825C339.536 195.762 339.433 191.104 339.437 186.974L339.448 162.728C339.449 145.618 339.696 127.892 339.413 110.83Z" fill="#005533"/>
<path d="M292.403 143.759C296.974 141.595 302.888 138.268 307.245 136.396C307.093 142.382 307.282 148.469 307.203 154.456C307.177 156.456 307.324 160.442 307.148 162.311C307.233 163.887 307.21 165.67 307.184 167.253C307.007 178.069 307.485 189.021 307.191 199.817C305.917 199.906 304.395 199.931 303.107 199.897C294.733 199.675 285.906 200.31 277.574 199.789L277.658 160.824C277.69 157.145 277.611 153.443 277.707 149.77C282.32 147.65 287.33 146.187 292.403 143.759Z" fill="#005533"/>
<path d="M347.888 241.132C366.622 240.761 398.083 237.01 394.011 265.169C392.962 272.434 388.77 275.969 382.465 279.001C385.657 284.429 394.646 299.916 396.062 305.248C393.299 305.467 390.529 305.584 387.757 305.6C385.686 305.594 383.243 305.594 381.753 304.092C378.447 298.751 372.666 287.137 369.858 281.367C366.11 281.069 362.004 281.177 358.214 281.196C358.491 287.782 358.325 298.731 358.097 305.327C353.847 305.476 349.591 305.496 345.338 305.391C345.071 301.428 345.217 295.845 345.217 291.761V268.074C345.22 264.829 345.011 244.117 345.586 242.021C346.456 241.228 346.542 241.434 347.888 241.132ZM358.186 251.732L358.224 270.262C362.378 270.437 372.33 270.751 376.049 269.541C383.386 264.41 383.119 253.492 373.206 251.901C370.084 251.399 366.05 251.64 362.836 251.669L358.186 251.732Z" fill="#005533"/>
<path d="M550.815 275.34C554.274 269.332 565.245 245.124 569.006 242.034C571.375 240.088 577.623 241.222 580.599 241.488C581.221 246.229 580.881 260.507 580.815 266.366C580.669 279.043 581.269 292.727 580.881 305.232C576.327 305.518 572.976 305.518 568.459 305.166C568.094 298.478 568.431 288.735 568.469 281.92C568.367 275.709 568.418 269.497 568.624 263.292C564.972 270.996 561.389 278.522 557.301 286.102C557.25 289.316 550.047 291.444 547.655 289.875C543.348 287.046 534.947 268.109 532.399 263.698C532.831 270.205 532.714 277.716 532.701 284.295C532.688 291.05 532.825 298.446 532.52 305.15C530.201 305.496 522.709 306.02 520.733 304.861C519.84 301.866 519.818 245.213 520.612 242.05C521.425 241.275 522.045 241.329 523.22 241.148C526.263 241.072 528.877 241.155 531.901 241.568C534.213 244.111 537.821 251.148 539.609 254.432C543.408 261.364 547.143 268.335 550.815 275.34Z" fill="#005533"/>
<path d="M3.14197 241.164C7.59903 241.075 12.3857 241.088 16.8573 241.085C26.1905 241.11 37.078 240.256 44.4691 246.998C51.6979 253.593 52.0933 268.385 45.24 275.365C39.1492 281.567 30.4647 281.561 22.3396 281.637L13.5716 281.707C13.595 289.325 13.8938 297.744 13.5749 305.261C8.90097 305.505 4.99254 305.797 0.329181 305.121C-0.172131 300.243 -0.0965271 243.965 0.526394 242.012C1.26134 241.393 2.17709 241.342 3.14197 241.164ZM13.6404 271.17C19.2171 271.129 30.0833 272.155 34.0196 268.671C36.148 265.994 36.9007 264.162 36.605 260.586C35.6293 248.779 22.0438 251.799 13.4782 251.621C13.6091 258.134 13.6631 264.654 13.6404 271.17Z" fill="#005533"/>
<path d="M460.213 241.123C463.345 241.075 465.969 241.139 469.088 241.469C471.644 243.857 475.424 250.094 477.501 253.346L489.33 271.945C491.55 275.432 494.196 279.834 496.641 283.06C496.473 278.046 495.539 243.749 497.048 241.923C499.773 240.628 505.376 241.218 508.546 241.418C509.013 246.553 509.153 302.885 508.571 304.651C508.406 305.156 508.203 305.127 507.755 305.372C495.327 305.886 497.105 305.886 490.327 295.55C486.084 289.033 481.92 282.46 477.841 275.835C475.777 272.523 472.797 267.449 470.504 264.438L470.225 264.076C470.777 273.809 470.441 283.53 470.536 293.273C470.574 297.249 470.631 301.228 470.329 305.194C465.787 305.562 462.602 305.61 458.079 305.181C457.478 294.156 457.999 278.29 457.977 266.953L457.945 251.504C457.942 248.941 457.79 244.553 458.145 242.187C458.99 241.237 458.771 241.526 460.213 241.123Z" fill="#005533"/>
<path d="M270.93 241.148L280.236 241.38C280.772 248.205 280.435 260.364 280.412 267.468C280.371 279.767 280.687 293.089 280.288 305.315C276.281 305.521 272.816 305.817 268.838 305.035C265.86 301.761 260.152 292.012 257.564 287.973C252.479 280.037 247.187 271.911 242.253 263.889C242.412 268.259 242.779 302.962 241.976 304.788C241.061 305.404 239.853 305.299 238.687 305.35C236.774 305.435 232.094 305.832 230.4 304.781C230.045 304.562 230.002 304.286 229.999 303.568C229.932 283.187 229.755 262.724 230.055 242.352C230.2 242.181 230.345 242.006 230.491 241.834C233.178 240.672 238.361 241.288 241.316 241.583C244.151 244.613 246.877 249.262 249.122 252.835L260.389 270.647C262.753 274.359 265.798 279.38 268.596 282.66C268.222 278.614 267.764 245.172 268.508 241.955C269.511 241.155 269.467 241.39 270.93 241.148Z" fill="#005533"/>
<path d="M186.528 241.158C189.269 241.094 196.986 240.574 199.394 241.752C200.797 242.441 203.314 249.767 203.999 251.618C206.624 258.7 209.279 265.909 211.963 272.981C215.86 283.657 220.852 294.235 223.825 305.194C219.089 305.489 215.408 305.804 210.664 304.984C208.478 300.786 207.428 296.982 206.05 292.476C203.503 292.368 200.735 292.4 198.169 292.377C191.768 292.33 185.366 292.361 178.965 292.473C177.895 295.893 176.134 302.155 174.267 305.067C171.992 305.451 162.972 306.366 161.753 304.232C161.97 301.244 166.847 289.373 168.185 285.775L178.968 256.347C180.438 252.317 182.458 246.188 184.597 242.396C184.845 241.958 186.027 241.39 186.528 241.158ZM182.509 281.498C185.835 281.625 189.163 281.685 192.491 281.679C195.723 281.656 199.037 281.675 202.26 281.612C200.8 278.354 193.093 255.439 192.217 254.607C191.071 256.953 190.077 260.97 189.151 263.568C187.05 269.462 184.953 275.747 182.509 281.498Z" fill="#005533"/>
<path d="M129.638 240.507C137.326 239.472 145.651 241.171 151.623 246.382C153.937 248.401 159.751 255.921 157.039 258.817C154.684 259.653 147.983 259.24 145.456 258.716C141.899 252.219 139.56 251.167 132.159 250.948C123.696 250.697 119.736 260.386 126.65 264.295C134.599 268.789 146.968 268.24 154.453 274.584C161.09 280.212 161.504 292.072 155.671 298.459C149.922 304.632 142.684 305.915 134.676 306.29C123.65 306.547 109.967 302.044 107.984 289.395C107.232 284.607 119.767 285.817 121.011 288.084C124.067 293.657 127.641 295.664 133.943 295.547C137.674 295.416 141.937 295.131 144.541 292.095C152.244 283.254 137.93 279.557 131.915 278.192C120.699 275.61 108.003 271.161 110.08 257.106C111.615 246.722 119.664 241.501 129.638 240.507Z" fill="#005533"/>
<path d="M60.8991 241.171C73.2877 240.983 89.43 240.793 101.746 241.412C101.904 243.765 102.508 250.072 101.358 251.799C98.2558 252.762 75.5219 252.244 70.2855 252.435C70.5799 257.077 70.4437 262.768 70.4497 267.49C79.7602 267.925 90.0093 267.363 99.5771 267.747C99.6975 268.881 100.242 277.236 99.088 277.69C95.2609 279.195 72.3075 277.287 70.3849 278.659L70.3694 279.535L70.4288 294.476C81.2143 294.594 92.0005 294.648 102.787 294.638C103.252 298.624 103.175 301.174 102.808 305.124C97.5742 305.639 61.6477 305.985 58.2723 304.74C57.8594 303.714 57.72 302.422 57.7273 301.313C57.847 282.641 57.7775 263.968 57.6682 245.299C57.6619 244.207 57.78 243.2 58.1904 242.184C59.0651 241.406 59.7182 241.402 60.8991 241.171Z" fill="#005533"/>
<path d="M407.986 241.183C419.29 241.155 436.826 240.58 447.724 241.463C448.115 243.752 448.537 249.427 447.619 251.51C445.866 252.727 420.789 252.209 416.638 252.327C416.851 257.096 416.787 262.666 416.79 267.458C421.577 267.579 442.435 267.217 445.472 268.112C446.685 269.748 446.145 275.064 445.939 277.099C443.769 279.811 419.417 276.922 416.822 278.725L416.74 279.697L416.794 294.476C421.888 294.572 445.478 294.273 448.632 295.131C449.557 296.744 449.112 303.139 449.058 305.286C444.646 305.785 432.862 305.527 428.085 305.505C422.679 305.477 408.697 305.89 404.181 304.876C403.914 301.529 404.066 297.55 404.06 294.152C404.022 277.747 404.006 261.339 404.035 244.934C404.038 241.364 404.892 241.577 407.986 241.183Z" fill="#005533"/>
<path d="M594.734 241.12C597.859 241.072 601.613 241.291 604.789 241.406C605.18 244.781 604.999 249.246 605.018 252.708C605.063 262.425 604.824 272.155 605.063 281.866C605.282 290.698 610.573 295.95 619.448 295.216C632.639 294.127 630.892 279.097 630.882 269.516L630.72 249.948C630.701 247.7 630.288 243.445 631.686 241.787C634.163 240.628 640.64 241.25 643.597 241.466C643.905 245.404 643.762 250.494 643.749 254.531C643.708 264.216 645.096 285.236 641.656 293.438C639.544 298.471 634.996 302.339 629.983 304.302C622.411 307.268 612.142 307.157 604.713 303.787C599.752 301.539 595.515 297.506 593.606 292.346C592.72 289.954 592.323 287.443 592.139 284.912C591.684 278.627 592.04 272.12 592.031 265.804C592.018 258.449 591.7 250.952 591.938 243.616C591.957 242.997 592.088 242.6 592.342 242.041C593.428 241.107 593.11 241.396 594.734 241.12Z" fill="#005533"/>
<path d="M289.353 241.142C291.371 241.04 293.698 241.063 295.724 241.11C309.61 241.421 323.851 240.723 337.709 241.377C337.906 245.013 337.941 248.859 337.582 252.485C333.653 253.038 323.794 252.825 319.223 252.949C319.776 263.393 319.337 278.471 319.356 289.259C319.36 294.514 319.426 299.922 319.245 305.162C315.021 305.569 310.768 305.581 306.541 305.203C306.25 298.465 306.438 290.431 306.429 283.613C306.362 273.324 306.371 263.035 306.456 252.746C302.615 252.606 290.786 253.251 288.036 252.196C286.841 250.875 287.706 246.207 287.537 244.349C287.352 242.342 287.816 241.999 289.353 241.142Z" fill="#005533"/>
<path d="M8.62063 357.448H0V328.925H9.00256C11.7124 328.925 14.0313 329.496 15.9591 330.638C17.8869 331.77 19.3646 333.4 20.3922 335.526C21.4197 337.643 21.9335 340.178 21.9335 343.131C21.9335 346.102 21.4152 348.66 20.3785 350.805C19.3419 352.94 17.8323 354.583 15.85 355.735C13.8676 356.877 11.4578 357.448 8.62063 357.448ZM3.38278 354.384H8.40239C10.7121 354.384 12.6263 353.929 14.1449 353.019C15.6635 352.109 16.7957 350.814 17.5413 349.133C18.287 347.453 18.6598 345.452 18.6598 343.131C18.6598 340.828 18.2916 338.846 17.555 337.184C16.8184 335.512 15.7181 334.231 14.254 333.34C12.79 332.439 10.9668 331.989 8.78431 331.989H3.38278V354.384Z" fill="black"/>
<path d="M27.1714 357.448V336.055H30.3905V357.448H27.1714ZM28.8082 332.49C28.1807 332.49 27.6397 332.272 27.185 331.835C26.7394 331.399 26.5166 330.875 26.5166 330.262C26.5166 329.649 26.7394 329.124 27.185 328.688C27.6397 328.252 28.1807 328.033 28.8082 328.033C29.4356 328.033 29.9722 328.252 30.4177 328.688C30.8724 329.124 31.0997 329.649 31.0997 330.262C31.0997 330.875 30.8724 331.399 30.4177 331.835C29.9722 332.272 29.4356 332.49 28.8082 332.49Z" fill="black"/>
<path d="M44.7434 365.916C43.1884 365.916 41.8517 365.711 40.7332 365.303C39.6147 364.904 38.6826 364.374 37.9369 363.715C37.2003 363.065 36.6138 362.369 36.1773 361.626L38.7417 359.788C39.0327 360.178 39.401 360.623 39.8465 361.125C40.2921 361.635 40.9014 362.076 41.6743 362.448C42.4564 362.828 43.4794 363.019 44.7434 363.019C46.4348 363.019 47.8306 362.601 48.9309 361.765C50.0313 360.93 50.5814 359.621 50.5814 357.838V353.492H50.3086C50.0722 353.882 49.7357 354.365 49.2992 354.941C48.8718 355.507 48.2535 356.013 47.4442 356.459C46.6439 356.895 45.5618 357.114 44.1978 357.114C42.5064 357.114 40.9878 356.705 39.6419 355.888C38.3052 355.071 37.2458 353.882 36.4638 352.323C35.6908 350.763 35.3043 348.869 35.3043 346.64C35.3043 344.449 35.6817 342.541 36.4365 340.916C37.1912 339.282 38.2415 338.019 39.5874 337.128C40.9332 336.227 42.4882 335.777 44.2523 335.777C45.6164 335.777 46.6985 336.009 47.4987 336.473C48.308 336.928 48.9264 337.448 49.3538 338.033C49.7903 338.609 50.1267 339.082 50.3632 339.454H50.6905V336.055H53.8005V358.061C53.8005 359.899 53.3913 361.394 52.5729 362.545C51.7636 363.706 50.6723 364.555 49.2992 365.094C47.9352 365.642 46.4166 365.916 44.7434 365.916ZM44.6343 354.161C45.9255 354.161 47.0168 353.859 47.9079 353.256C48.7991 352.652 49.4766 351.784 49.9403 350.651C50.4041 349.519 50.636 348.163 50.636 346.585C50.636 345.043 50.4086 343.683 49.954 342.504C49.4993 341.325 48.8264 340.401 47.9352 339.732C47.044 339.064 45.9437 338.73 44.6343 338.73C43.2702 338.73 42.1336 339.082 41.2242 339.788C40.324 340.494 39.6465 341.441 39.1918 342.629C38.7462 343.818 38.5234 345.136 38.5234 346.585C38.5234 348.07 38.7508 349.384 39.2055 350.526C39.6692 351.659 40.3512 352.55 41.2515 353.2C42.1608 353.841 43.2884 354.161 44.6343 354.161Z" fill="black"/>
<path d="M59.6931 357.448V336.055H62.9122V357.448H59.6931ZM61.3299 332.49C60.7025 332.49 60.1614 332.272 59.7067 331.835C59.2612 331.399 59.0384 330.875 59.0384 330.262C59.0384 329.649 59.2612 329.124 59.7067 328.688C60.1614 328.252 60.7025 328.033 61.3299 328.033C61.9574 328.033 62.4939 328.252 62.9395 328.688C63.3941 329.124 63.6215 329.649 63.6215 330.262C63.6215 330.875 63.3941 331.399 62.9395 331.835C62.4939 332.272 61.9574 332.49 61.3299 332.49Z" fill="black"/>
<path d="M77.9199 336.055V338.841H67.0622V336.055H77.9199ZM70.2268 330.93H73.4459V351.32C73.4459 352.248 73.5777 352.945 73.8414 353.409C74.1142 353.864 74.4598 354.17 74.8781 354.328C75.3055 354.477 75.7556 354.551 76.2285 354.551C76.5831 354.551 76.8741 354.532 77.1015 354.495C77.3288 354.449 77.5107 354.412 77.6471 354.384L78.3018 357.336C78.0835 357.42 77.7789 357.504 77.3879 357.587C76.9969 357.68 76.5013 357.726 75.9011 357.726C74.9918 357.726 74.1006 357.527 73.2276 357.128C72.3637 356.728 71.6454 356.12 71.0725 355.303C70.5087 354.486 70.2268 353.455 70.2268 352.211V330.93Z" fill="black"/>
<path d="M88.9275 357.949C87.5999 357.949 86.395 357.694 85.3129 357.183C84.2307 356.663 83.3714 355.916 82.7349 354.941C82.0983 353.957 81.7801 352.768 81.7801 351.376C81.7801 350.15 82.0165 349.156 82.4893 348.395C82.9622 347.624 83.5942 347.021 84.3853 346.585C85.1765 346.148 86.0494 345.823 87.0043 345.61C87.9682 345.387 88.9366 345.21 89.9096 345.08C91.1827 344.913 92.2148 344.788 93.006 344.704C93.8062 344.611 94.3882 344.458 94.7519 344.245C95.1247 344.031 95.3112 343.66 95.3112 343.131V343.019C95.3112 341.645 94.9429 340.577 94.2063 339.816C93.4788 339.054 92.374 338.674 90.8917 338.674C89.3549 338.674 88.15 339.017 87.2771 339.704C86.4041 340.392 85.7903 341.125 85.4356 341.905L82.3802 340.791C82.9258 339.491 83.6533 338.479 84.5627 337.755C85.4811 337.021 86.4814 336.51 87.5635 336.223C88.6547 335.925 89.7278 335.777 90.7826 335.777C91.4555 335.777 92.2285 335.86 93.1014 336.028C93.9835 336.185 94.8338 336.515 95.6522 337.016C96.4797 337.518 97.1662 338.275 97.7118 339.287C98.2575 340.299 98.5303 341.654 98.5303 343.353V357.448H95.3112V354.551H95.1475C94.9292 355.015 94.5655 355.512 94.0563 356.041C93.547 356.57 92.8696 357.021 92.0239 357.392C91.1782 357.764 90.1461 357.949 88.9275 357.949ZM89.4186 354.997C90.6917 354.997 91.7647 354.741 92.6377 354.231C93.5197 353.72 94.1836 353.061 94.6292 352.253C95.0838 351.445 95.3112 350.596 95.3112 349.704V346.696C95.1748 346.863 94.8747 347.016 94.4109 347.156C93.9562 347.286 93.4288 347.402 92.8286 347.504C92.2376 347.597 91.6601 347.68 91.0963 347.754C90.5416 347.819 90.0915 347.875 89.7459 347.922C88.9093 348.033 88.1273 348.214 87.3998 348.465C86.6814 348.706 86.0995 349.073 85.6539 349.565C85.2174 350.048 84.9991 350.707 84.9991 351.543C84.9991 352.685 85.4129 353.548 86.2404 354.133C87.077 354.709 88.1364 354.997 89.4186 354.997Z" fill="black"/>
<path d="M107.625 328.925V357.448H104.406V328.925H107.625Z" fill="black"/>
<path d="M128.143 328.925V357.448H124.76V328.925H128.143Z" fill="black"/>
<path d="M149.33 340.846L146.438 341.682C146.256 341.19 145.988 340.712 145.633 340.248C145.288 339.774 144.815 339.384 144.215 339.078C143.615 338.771 142.846 338.618 141.91 338.618C140.627 338.618 139.559 338.92 138.704 339.523C137.858 340.118 137.436 340.874 137.436 341.794C137.436 342.611 137.727 343.256 138.309 343.729C138.891 344.203 139.8 344.598 141.037 344.913L144.147 345.693C146.02 346.157 147.416 346.868 148.334 347.824C149.253 348.771 149.712 349.992 149.712 351.487C149.712 352.713 149.366 353.808 148.675 354.774C147.993 355.739 147.038 356.501 145.811 357.058C144.583 357.615 143.155 357.894 141.528 357.894C139.391 357.894 137.622 357.42 136.222 356.473C134.821 355.526 133.935 354.142 133.562 352.323L136.617 351.543C136.908 352.694 137.458 353.557 138.268 354.133C139.086 354.709 140.155 354.997 141.473 354.997C142.974 354.997 144.165 354.672 145.047 354.022C145.938 353.363 146.384 352.573 146.384 351.654C146.384 350.911 146.129 350.289 145.62 349.788C145.111 349.277 144.329 348.896 143.274 348.646L139.782 347.81C137.863 347.346 136.454 346.626 135.553 345.651C134.662 344.667 134.217 343.437 134.217 341.961C134.217 340.754 134.548 339.686 135.212 338.757C135.885 337.829 136.799 337.1 137.954 336.571C139.118 336.042 140.436 335.777 141.91 335.777C143.983 335.777 145.611 336.241 146.793 337.17C147.984 338.098 148.83 339.324 149.33 340.846Z" fill="black"/>
<path d="M157.777 328.925V357.448H154.558V328.925H157.777Z" fill="black"/>
<path d="M169.838 357.949C168.51 357.949 167.305 357.694 166.223 357.183C165.141 356.663 164.282 355.916 163.645 354.941C163.009 353.957 162.691 352.768 162.691 351.376C162.691 350.15 162.927 349.156 163.4 348.395C163.873 347.624 164.505 347.021 165.296 346.585C166.087 346.148 166.96 345.823 167.915 345.61C168.879 345.387 169.847 345.21 170.82 345.08C172.093 344.913 173.125 344.788 173.916 344.704C174.717 344.611 175.299 344.458 175.662 344.245C176.035 344.031 176.222 343.66 176.222 343.131V343.019C176.222 341.645 175.853 340.577 175.117 339.816C174.389 339.054 173.284 338.674 171.802 338.674C170.265 338.674 169.061 339.017 168.188 339.704C167.315 340.392 166.701 341.125 166.346 341.905L163.291 340.791C163.836 339.491 164.564 338.479 165.473 337.755C166.392 337.021 167.392 336.51 168.474 336.223C169.565 335.925 170.638 335.777 171.693 335.777C172.366 335.777 173.139 335.86 174.012 336.028C174.894 336.185 175.744 336.515 176.563 337.016C177.39 337.518 178.077 338.275 178.622 339.287C179.168 340.299 179.441 341.654 179.441 343.353V357.448H176.222V354.551H176.058C175.84 355.015 175.476 355.512 174.967 356.041C174.458 356.57 173.78 357.021 172.934 357.392C172.089 357.764 171.057 357.949 169.838 357.949ZM170.329 354.997C171.602 354.997 172.675 354.741 173.548 354.231C174.43 353.72 175.094 353.061 175.54 352.253C175.994 351.445 176.222 350.596 176.222 349.704V346.696C176.085 346.863 175.785 347.016 175.321 347.156C174.867 347.286 174.339 347.402 173.739 347.504C173.148 347.597 172.571 347.68 172.007 347.754C171.452 347.819 171.002 347.875 170.656 347.922C169.82 348.033 169.038 348.214 168.31 348.465C167.592 348.706 167.01 349.073 166.564 349.565C166.128 350.048 165.91 350.707 165.91 351.543C165.91 352.685 166.323 353.548 167.151 354.133C167.988 354.709 169.047 354.997 170.329 354.997Z" fill="black"/>
<path d="M185.316 357.448V336.055H188.426V339.398H188.699C189.136 338.256 189.84 337.369 190.813 336.738C191.786 336.097 192.955 335.777 194.319 335.777C195.701 335.777 196.851 336.097 197.77 336.738C198.697 337.369 199.42 338.256 199.939 339.398H200.157C200.693 338.293 201.498 337.416 202.571 336.766C203.644 336.107 204.931 335.777 206.431 335.777C208.305 335.777 209.837 336.376 211.028 337.574C212.219 338.762 212.815 340.614 212.815 343.131V357.448H209.596V343.131C209.596 341.552 209.173 340.424 208.327 339.746C207.482 339.068 206.486 338.73 205.34 338.73C203.867 338.73 202.726 339.184 201.916 340.094C201.107 340.995 200.702 342.137 200.702 343.521V357.448H197.429V342.796C197.429 341.58 197.042 340.6 196.269 339.858C195.496 339.106 194.501 338.73 193.282 338.73C192.446 338.73 191.664 338.957 190.936 339.412C190.218 339.867 189.636 340.498 189.19 341.306C188.754 342.105 188.535 343.028 188.535 344.078V357.448H185.316Z" fill="black"/>
<path d="M218.701 357.448V336.055H221.92V357.448H218.701ZM220.338 332.49C219.71 332.49 219.169 332.272 218.714 331.835C218.269 331.399 218.046 330.875 218.046 330.262C218.046 329.649 218.269 329.124 218.714 328.688C219.169 328.252 219.71 328.033 220.338 328.033C220.965 328.033 221.502 328.252 221.947 328.688C222.402 329.124 222.629 329.649 222.629 330.262C222.629 330.875 222.402 331.399 221.947 331.835C221.502 332.272 220.965 332.49 220.338 332.49Z" fill="black"/>
<path d="M236.327 357.894C234.363 357.894 232.672 357.42 231.253 356.473C229.835 355.526 228.743 354.221 227.98 352.559C227.216 350.897 226.834 348.999 226.834 346.863C226.834 344.69 227.225 342.773 228.007 341.111C228.798 339.44 229.898 338.135 231.308 337.198C232.726 336.25 234.381 335.777 236.273 335.777C237.746 335.777 239.074 336.055 240.256 336.613C241.438 337.17 242.406 337.95 243.161 338.952C243.916 339.955 244.384 341.125 244.566 342.462H241.347C241.101 341.487 240.556 340.624 239.71 339.872C238.874 339.11 237.746 338.73 236.327 338.73C235.072 338.73 233.972 339.064 233.026 339.732C232.09 340.392 231.358 341.325 230.83 342.532C230.312 343.729 230.053 345.136 230.053 346.752C230.053 348.404 230.307 349.844 230.817 351.069C231.335 352.295 232.063 353.246 232.999 353.924C233.945 354.602 235.054 354.941 236.327 354.941C237.164 354.941 237.923 354.792 238.605 354.495C239.287 354.198 239.865 353.771 240.338 353.214C240.81 352.657 241.147 351.988 241.347 351.208H244.566C244.384 352.471 243.934 353.609 243.216 354.621C242.506 355.623 241.565 356.422 240.392 357.016C239.228 357.601 237.873 357.894 236.327 357.894Z" fill="black"/>
<path d="M260.512 357.448V328.925H277.371V331.989H263.894V341.626H276.498V344.69H263.894V354.384H277.589V357.448H260.512Z" fill="black"/>
<path d="M290.943 357.894C289.197 357.894 287.656 357.443 286.319 356.543C284.982 355.633 283.936 354.351 283.182 352.699C282.427 351.037 282.049 349.073 282.049 346.807C282.049 344.56 282.427 342.611 283.182 340.958C283.936 339.305 284.987 338.029 286.332 337.128C287.678 336.227 289.233 335.777 290.997 335.777C292.361 335.777 293.439 336.009 294.23 336.473C295.03 336.928 295.64 337.448 296.058 338.033C296.485 338.609 296.817 339.082 297.054 339.454H297.327V328.925H300.546V357.448H297.436V354.161H297.054C296.817 354.551 296.481 355.043 296.044 355.637C295.608 356.222 294.985 356.747 294.176 357.211C293.366 357.666 292.289 357.894 290.943 357.894ZM291.379 354.941C292.671 354.941 293.762 354.597 294.653 353.91C295.544 353.214 296.222 352.253 296.685 351.027C297.149 349.792 297.381 348.367 297.381 346.752C297.381 345.155 297.154 343.757 296.699 342.56C296.244 341.352 295.571 340.415 294.68 339.746C293.789 339.068 292.689 338.73 291.379 338.73C290.015 338.73 288.879 339.087 287.969 339.802C287.069 340.508 286.392 341.469 285.937 342.685C285.491 343.892 285.269 345.248 285.269 346.752C285.269 348.274 285.496 349.658 285.951 350.902C286.414 352.137 287.096 353.121 287.997 353.855C288.906 354.579 290.034 354.941 291.379 354.941Z" fill="black"/>
<path d="M320.092 348.701V336.055H323.311V357.448H320.092V353.827H319.874C319.383 354.913 318.619 355.837 317.582 356.598C316.546 357.35 315.236 357.726 313.654 357.726C312.344 357.726 311.18 357.434 310.162 356.849C309.143 356.255 308.343 355.363 307.761 354.175C307.179 352.977 306.888 351.468 306.888 349.649V336.055H310.107V349.426C310.107 350.986 310.535 352.23 311.39 353.158C312.253 354.087 313.354 354.551 314.691 354.551C315.491 354.551 316.305 354.342 317.132 353.924C317.969 353.506 318.669 352.866 319.233 352.002C319.806 351.139 320.092 350.039 320.092 348.701Z" fill="black"/>
<path d="M337.719 357.894C335.754 357.894 334.063 357.42 332.645 356.473C331.226 355.526 330.135 354.221 329.371 352.559C328.607 350.897 328.225 348.999 328.225 346.863C328.225 344.69 328.616 342.773 329.398 341.111C330.189 339.44 331.29 338.135 332.699 337.198C334.118 336.25 335.773 335.777 337.664 335.777C339.137 335.777 340.465 336.055 341.647 336.613C342.829 337.17 343.798 337.95 344.552 338.952C345.307 339.955 345.776 341.125 345.957 342.462H342.738C342.493 341.487 341.947 340.624 341.101 339.872C340.265 339.11 339.137 338.73 337.719 338.73C336.464 338.73 335.363 339.064 334.418 339.732C333.481 340.392 332.749 341.325 332.222 342.532C331.703 343.729 331.444 345.136 331.444 346.752C331.444 348.404 331.699 349.844 332.208 351.069C332.726 352.295 333.454 353.246 334.39 353.924C335.336 354.602 336.446 354.941 337.719 354.941C338.555 354.941 339.315 354.792 339.997 354.495C340.679 354.198 341.256 353.771 341.729 353.214C342.202 352.657 342.538 351.988 342.738 351.208H345.957C345.776 352.471 345.325 353.609 344.607 354.621C343.898 355.623 342.957 356.422 341.783 357.016C340.619 357.601 339.265 357.894 337.719 357.894Z" fill="black"/>
<path d="M356.829 357.949C355.501 357.949 354.296 357.694 353.214 357.183C352.132 356.663 351.273 355.916 350.636 354.941C349.999 353.957 349.681 352.768 349.681 351.376C349.681 350.15 349.918 349.156 350.39 348.395C350.863 347.624 351.495 347.021 352.286 346.585C353.078 346.148 353.951 345.823 354.905 345.61C355.869 345.387 356.838 345.21 357.811 345.08C359.084 344.913 360.116 344.788 360.907 344.704C361.707 344.611 362.289 344.458 362.653 344.245C363.026 344.031 363.212 343.66 363.212 343.131V343.019C363.212 341.645 362.844 340.577 362.107 339.816C361.38 339.054 360.275 338.674 358.793 338.674C357.256 338.674 356.051 339.017 355.178 339.704C354.305 340.392 353.691 341.125 353.337 341.905L350.281 340.791C350.827 339.491 351.554 338.479 352.464 337.755C353.382 337.021 354.383 336.51 355.465 336.223C356.556 335.925 357.629 335.777 358.684 335.777C359.357 335.777 360.13 335.86 361.003 336.028C361.885 336.185 362.735 336.515 363.553 337.016C364.381 337.518 365.067 338.275 365.613 339.287C366.159 340.299 366.431 341.654 366.431 343.353V357.448H363.212V354.551H363.049C362.83 355.015 362.467 355.512 361.957 356.041C361.448 356.57 360.771 357.021 359.925 357.392C359.079 357.764 358.047 357.949 356.829 357.949ZM357.32 354.997C358.593 354.997 359.666 354.741 360.539 354.231C361.421 353.72 362.085 353.061 362.53 352.253C362.985 351.445 363.212 350.596 363.212 349.704V346.696C363.076 346.863 362.776 347.016 362.312 347.156C361.857 347.286 361.33 347.402 360.73 347.504C360.139 347.597 359.561 347.68 358.997 347.754C358.443 347.819 357.993 347.875 357.647 347.922C356.81 348.033 356.028 348.214 355.301 348.465C354.583 348.706 354.001 349.073 353.555 349.565C353.118 350.048 352.9 350.707 352.9 351.543C352.9 352.685 353.314 353.548 354.142 354.133C354.978 354.709 356.038 354.997 357.32 354.997Z" fill="black"/>
<path d="M381.419 336.055V338.841H370.561V336.055H381.419ZM373.725 330.93H376.945V351.32C376.945 352.248 377.076 352.945 377.34 353.409C377.613 353.864 377.959 354.17 378.377 354.328C378.804 354.477 379.254 354.551 379.727 354.551C380.082 354.551 380.373 354.532 380.6 354.495C380.828 354.449 381.009 354.412 381.146 354.384L381.801 357.336C381.582 357.42 381.278 357.504 380.887 357.587C380.496 357.68 380 357.726 379.4 357.726C378.491 357.726 377.599 357.527 376.726 357.128C375.862 356.728 375.144 356.12 374.571 355.303C374.007 354.486 373.725 353.455 373.725 352.211V330.93Z" fill="black"/>
<path d="M386.261 357.448V336.055H389.48V357.448H386.261ZM387.898 332.49C387.27 332.49 386.729 332.272 386.275 331.835C385.829 331.399 385.606 330.875 385.606 330.262C385.606 329.649 385.829 329.124 386.275 328.688C386.729 328.252 387.27 328.033 387.898 328.033C388.525 328.033 389.062 328.252 389.507 328.688C389.962 329.124 390.189 329.649 390.189 330.262C390.189 330.875 389.962 331.399 389.507 331.835C389.062 332.272 388.525 332.49 387.898 332.49Z" fill="black"/>
<path d="M403.887 357.894C401.996 357.894 400.336 357.434 398.909 356.515C397.49 355.596 396.381 354.31 395.581 352.657C394.789 351.004 394.394 349.073 394.394 346.863C394.394 344.635 394.789 342.69 395.581 341.028C396.381 339.366 397.49 338.075 398.909 337.156C400.336 336.237 401.996 335.777 403.887 335.777C405.779 335.777 407.434 336.237 408.853 337.156C410.28 338.075 411.39 339.366 412.181 341.028C412.981 342.69 413.381 344.635 413.381 346.863C413.381 349.073 412.981 351.004 412.181 352.657C411.39 354.31 410.28 355.596 408.853 356.515C407.434 357.434 405.779 357.894 403.887 357.894ZM403.887 354.941C405.324 354.941 406.506 354.565 407.434 353.813C408.361 353.061 409.048 352.072 409.494 350.846C409.939 349.621 410.162 348.293 410.162 346.863C410.162 345.433 409.939 344.101 409.494 342.866C409.048 341.631 408.361 340.633 407.434 339.872C406.506 339.11 405.324 338.73 403.887 338.73C402.451 338.73 401.269 339.11 400.341 339.872C399.413 340.633 398.727 341.631 398.281 342.866C397.836 344.101 397.613 345.433 397.613 346.863C397.613 348.293 397.836 349.621 398.281 350.846C398.727 352.072 399.413 353.061 400.341 353.813C401.269 354.565 402.451 354.941 403.887 354.941Z" fill="black"/>
<path d="M421.514 344.579V357.448H418.295V336.055H421.405V339.398H421.678C422.169 338.312 422.914 337.439 423.915 336.78C424.915 336.111 426.206 335.777 427.789 335.777C429.207 335.777 430.448 336.074 431.512 336.668C432.576 337.253 433.404 338.145 433.995 339.342C434.586 340.531 434.881 342.035 434.881 343.855V357.448H431.662V344.078C431.662 342.397 431.235 341.088 430.38 340.15C429.525 339.203 428.352 338.73 426.861 338.73C425.833 338.73 424.915 338.957 424.106 339.412C423.305 339.867 422.673 340.531 422.21 341.404C421.746 342.276 421.514 343.335 421.514 344.579Z" fill="black"/>
<path d="M452.003 357.448V328.925H468.863V331.989H455.386V341.626H467.99V344.69H455.386V354.384H469.081V357.448H452.003Z" fill="black"/>
<path d="M483.035 357.894C481.071 357.894 479.379 357.42 477.961 356.473C476.542 355.526 475.451 354.221 474.687 352.559C473.923 350.897 473.541 348.999 473.541 346.863C473.541 344.69 473.932 342.773 474.714 341.111C475.506 339.44 476.606 338.135 478.015 337.198C479.434 336.25 481.089 335.777 482.98 335.777C484.454 335.777 485.781 336.055 486.963 336.613C488.146 337.17 489.114 337.95 489.869 338.952C490.623 339.955 491.092 341.125 491.274 342.462H488.055C487.809 341.487 487.263 340.624 486.418 339.872C485.581 339.11 484.454 338.73 483.035 338.73C481.78 338.73 480.68 339.064 479.734 339.732C478.797 340.392 478.065 341.325 477.538 342.532C477.02 343.729 476.76 345.136 476.76 346.752C476.76 348.404 477.015 349.844 477.524 351.069C478.043 352.295 478.77 353.246 479.707 353.924C480.652 354.602 481.762 354.941 483.035 354.941C483.872 354.941 484.631 354.792 485.313 354.495C485.995 354.198 486.572 353.771 487.045 353.214C487.518 352.657 487.855 351.988 488.055 351.208H491.274C491.092 352.471 490.642 353.609 489.923 354.621C489.214 355.623 488.273 356.422 487.1 357.016C485.936 357.601 484.581 357.894 483.035 357.894Z" fill="black"/>
<path d="M504.491 357.894C502.6 357.894 500.94 357.434 499.512 356.515C498.094 355.596 496.984 354.31 496.184 352.657C495.393 351.004 494.997 349.073 494.997 346.863C494.997 344.635 495.393 342.69 496.184 341.028C496.984 339.366 498.094 338.075 499.512 337.156C500.94 336.237 502.6 335.777 504.491 335.777C506.383 335.777 508.038 336.237 509.456 337.156C510.884 338.075 511.993 339.366 512.784 341.028C513.585 342.69 513.985 344.635 513.985 346.863C513.985 349.073 513.585 351.004 512.784 352.657C511.993 354.31 510.884 355.596 509.456 356.515C508.038 357.434 506.383 357.894 504.491 357.894ZM504.491 354.941C505.928 354.941 507.11 354.565 508.038 353.813C508.965 353.061 509.652 352.072 510.097 350.846C510.543 349.621 510.766 348.293 510.766 346.863C510.766 345.433 510.543 344.101 510.097 342.866C509.652 341.631 508.965 340.633 508.038 339.872C507.11 339.11 505.928 338.73 504.491 338.73C503.054 338.73 501.872 339.11 500.945 339.872C500.017 340.633 499.331 341.631 498.885 342.866C498.439 344.101 498.217 345.433 498.217 346.863C498.217 348.293 498.439 349.621 498.885 350.846C499.331 352.072 500.017 353.061 500.945 353.813C501.872 354.565 503.054 354.941 504.491 354.941Z" fill="black"/>
<path d="M533.739 340.846L530.847 341.682C530.666 341.19 530.397 340.712 530.043 340.248C529.697 339.774 529.224 339.384 528.624 339.078C528.024 338.771 527.255 338.618 526.319 338.618C525.037 338.618 523.968 338.92 523.113 339.523C522.268 340.118 521.845 340.874 521.845 341.794C521.845 342.611 522.136 343.256 522.718 343.729C523.3 344.203 524.209 344.598 525.446 344.913L528.556 345.693C530.429 346.157 531.825 346.868 532.743 347.824C533.662 348.771 534.121 349.992 534.121 351.487C534.121 352.713 533.776 353.808 533.084 354.774C532.402 355.739 531.448 356.501 530.22 357.058C528.992 357.615 527.565 357.894 525.937 357.894C523.8 357.894 522.031 357.42 520.631 356.473C519.23 355.526 518.344 354.142 517.971 352.323L521.026 351.543C521.317 352.694 521.868 353.557 522.677 354.133C523.495 354.709 524.564 354.997 525.882 354.997C527.383 354.997 528.574 354.672 529.456 354.022C530.347 353.363 530.793 352.573 530.793 351.654C530.793 350.911 530.538 350.289 530.029 349.788C529.52 349.277 528.738 348.896 527.683 348.646L524.191 347.81C522.272 347.346 520.863 346.626 519.962 345.651C519.071 344.667 518.626 343.437 518.626 341.961C518.626 340.754 518.958 339.686 519.621 338.757C520.294 337.829 521.208 337.1 522.363 336.571C523.527 336.042 524.846 335.777 526.319 335.777C528.392 335.777 530.02 336.241 531.202 337.17C532.393 338.098 533.239 339.324 533.739 340.846Z" fill="black"/>
<path d="M541.04 365.47C540.495 365.47 540.008 365.424 539.581 365.331C539.153 365.247 538.858 365.164 538.694 365.08L539.512 362.183C540.294 362.387 540.986 362.462 541.586 362.406C542.186 362.35 542.718 362.076 543.182 361.584C543.654 361.101 544.086 360.317 544.477 359.231L545.078 357.559L537.33 336.055H540.822L546.605 353.103H546.824L552.607 336.055H556.099L547.205 360.568C546.805 361.672 546.31 362.587 545.719 363.311C545.128 364.045 544.441 364.588 543.659 364.941C542.886 365.294 542.013 365.47 541.04 365.47Z" fill="black"/>
<path d="M575.188 340.846L572.297 341.682C572.115 341.19 571.846 340.712 571.492 340.248C571.146 339.774 570.673 339.384 570.073 339.078C569.473 338.771 568.705 338.618 567.768 338.618C566.486 338.618 565.417 338.92 564.563 339.523C563.717 340.118 563.294 340.874 563.294 341.794C563.294 342.611 563.585 343.256 564.167 343.729C564.749 344.203 565.658 344.598 566.895 344.913L570.005 345.693C571.878 346.157 573.274 346.868 574.193 347.824C575.111 348.771 575.57 349.992 575.57 351.487C575.57 352.713 575.225 353.808 574.534 354.774C573.852 355.739 572.897 356.501 571.669 357.058C570.442 357.615 569.014 357.894 567.386 357.894C565.249 357.894 563.48 357.42 562.08 356.473C560.68 355.526 559.793 354.142 559.42 352.323L562.476 351.543C562.767 352.694 563.317 353.557 564.126 354.133C564.945 354.709 566.013 354.997 567.332 354.997C568.832 354.997 570.023 354.672 570.905 354.022C571.797 353.363 572.242 352.573 572.242 351.654C572.242 350.911 571.987 350.289 571.478 349.788C570.969 349.277 570.187 348.896 569.132 348.646L565.64 347.81C563.721 347.346 562.312 346.626 561.412 345.651C560.521 344.667 560.075 343.437 560.075 341.961C560.075 340.754 560.407 339.686 561.071 338.757C561.744 337.829 562.658 337.1 563.812 336.571C564.976 336.042 566.295 335.777 567.768 335.777C569.841 335.777 571.469 336.241 572.651 337.17C573.843 338.098 574.688 339.324 575.188 340.846Z" fill="black"/>
<path d="M589.528 336.055V338.841H578.67V336.055H589.528ZM581.835 330.93H585.054V351.32C585.054 352.248 585.186 352.945 585.449 353.409C585.722 353.864 586.068 354.17 586.486 354.328C586.913 354.477 587.363 354.551 587.836 354.551C588.191 354.551 588.482 354.532 588.709 354.495C588.937 354.449 589.118 354.412 589.255 354.384L589.91 357.336C589.691 357.42 589.387 357.504 588.996 357.587C588.605 357.68 588.109 357.726 587.509 357.726C586.6 357.726 585.708 357.527 584.835 357.128C583.972 356.728 583.253 356.12 582.68 355.303C582.117 354.486 581.835 353.455 581.835 352.211V330.93Z" fill="black"/>
<path d="M602.929 357.894C600.911 357.894 599.169 357.439 597.705 356.529C596.25 355.609 595.127 354.328 594.336 352.685C593.554 351.032 593.163 349.11 593.163 346.919C593.163 344.728 593.554 342.796 594.336 341.125C595.127 339.444 596.227 338.135 597.637 337.198C599.055 336.25 600.71 335.777 602.602 335.777C603.693 335.777 604.771 335.963 605.835 336.334C606.899 336.705 607.867 337.309 608.74 338.145C609.613 338.971 610.309 340.067 610.827 341.431C611.345 342.796 611.604 344.477 611.604 346.473V347.866H595.454V345.025H608.331C608.331 343.818 608.094 342.741 607.622 341.794C607.158 340.846 606.494 340.099 605.63 339.551C604.775 339.003 603.766 338.73 602.602 338.73C601.32 338.73 600.21 339.054 599.274 339.704C598.346 340.345 597.632 341.181 597.132 342.211C596.632 343.242 596.382 344.347 596.382 345.526V347.42C596.382 349.036 596.655 350.405 597.2 351.529C597.755 352.643 598.523 353.492 599.506 354.077C600.488 354.653 601.629 354.941 602.929 354.941C603.775 354.941 604.539 354.82 605.221 354.579C605.912 354.328 606.508 353.957 607.008 353.465C607.508 352.963 607.894 352.341 608.167 351.598L611.277 352.49C610.95 353.567 610.4 354.514 609.627 355.331C608.854 356.139 607.899 356.77 606.762 357.225C605.625 357.671 604.348 357.894 602.929 357.894Z" fill="black"/>
<path d="M616.501 357.448V336.055H619.611V339.398H619.884C620.32 338.256 621.025 337.369 621.998 336.738C622.971 336.097 624.14 335.777 625.504 335.777C626.886 335.777 628.036 336.097 628.955 336.738C629.882 337.369 630.605 338.256 631.124 339.398H631.342C631.878 338.293 632.683 337.416 633.756 336.766C634.829 336.107 636.116 335.777 637.616 335.777C639.49 335.777 641.022 336.376 642.213 337.574C643.404 338.762 644 340.614 644 343.131V357.448H640.781V343.131C640.781 341.552 640.358 340.424 639.512 339.746C638.667 339.068 637.671 338.73 636.525 338.73C635.052 338.73 633.911 339.184 633.101 340.094C632.292 340.995 631.887 342.137 631.887 343.521V357.448H628.614V342.796C628.614 341.58 628.227 340.6 627.454 339.858C626.681 339.106 625.686 338.73 624.467 338.73C623.631 338.73 622.849 338.957 622.121 339.412C621.403 339.867 620.821 340.498 620.375 341.306C619.939 342.105 619.72 343.028 619.72 344.078V357.448H616.501Z" fill="black"/>
</svg>
