<svg width="852" height="200" viewBox="0 0 852 200" fill="none" xmlns="http://www.w3.org/2000/svg">
<path d="M123.599 0.0511579C123.974 0.0155421 124.077 -0.0784834 124.259 0.137826C126.49 2.76452 128.801 6.5212 130.77 9.28626L145.644 29.7524C147.229 31.8944 149.112 34.7193 150.679 36.7161L138.676 36.866C138.882 41.4831 138.577 46.3353 138.322 50.9543C137.172 71.7819 130.045 91.968 115.975 107.511C102.167 123.167 83.8129 132.809 64.5935 140.182C58.0403 142.695 49.6281 146.118 44.124 150.452C38.2759 155.057 32.5636 164.335 30.9033 171.576C28.877 180.413 29.461 190.857 29.5345 199.933L0.015625 199.816C0.0818204 192.828 -0.0922328 185.425 0.383761 178.547C1.56374 161.506 9.20867 144.765 21.484 132.849C30.141 124.445 41.2287 118.675 52.4052 114.307C56.9808 112.519 61.6068 110.896 66.1108 108.855C69.8053 107.167 73.3962 105.261 76.8647 103.147C83.2002 99.3571 89.2471 94.7846 94.0072 89.0897C94.4805 88.5234 96.2802 86.145 96.6404 85.8898C105.438 73.2283 108.607 62.4659 109.489 46.9242C109.676 43.6184 109.453 40.2299 109.563 36.9042C105.952 36.7201 101.577 36.7675 97.9094 36.7062C98.8874 34.6726 100.883 31.9586 102.2 30.075L109.029 20.3942L118.071 7.56826C119.705 5.26857 121.801 2.15617 123.599 0.0511579Z" fill="#005533"/>
<path d="M187.843 41.6433C189.477 42.6786 191.943 45.2018 193.418 46.6396L203.304 56.4362L209.83 62.8777C211.717 64.7115 214.287 66.3399 214.334 69.0653C214.417 73.7384 214.365 78.408 214.368 83.082C214.321 85.6523 214.568 91.0386 214.334 93.3348C214.498 97.0515 214.375 101.695 214.37 105.468L214.343 127.519L214.388 199.882C208.25 199.924 202.11 199.926 195.972 199.893C192.318 199.884 188.61 199.965 184.965 199.787C185.246 174.03 184.75 148.023 184.95 122.245C185.035 111.46 184.643 99.7563 185.002 89.0572C183.543 90.2015 178.886 95.7311 177.355 97.4729C171.222 104.425 165.144 111.424 159.116 118.468C157.839 119.945 153.638 124.972 152.238 125.9C151.171 125.765 130.188 105.955 128.458 103.74C129.438 101.833 132.309 97.4859 133.604 95.2842C137.895 87.9867 139.243 83.1011 141.833 75.2312C144.924 78.131 147.919 81.1331 150.81 84.2329C151.441 83.2926 152.931 81.3685 153.782 80.6235C154.681 79.326 156.946 76.9303 158.095 75.6022L167.223 65.0518C171.996 59.4853 176.81 53.9559 181.669 48.4639C182.984 46.9781 186.404 42.8827 187.843 41.6433Z" fill="#005533"/>
<path d="M49.8438 32.0962C67.3297 30.3929 85.9584 38.7459 96.5238 52.5941C98.2805 54.8966 100.644 57.6874 100.04 60.7485C98.2545 69.8016 93.7503 78.599 87.4096 85.3156C84.7746 88.1139 81.8149 90.4072 78.7541 92.7353C79.2737 83.8503 77.8737 76.1154 71.3923 69.3621C62.1468 59.7289 46.0353 59.9419 36.6808 69.3547C28.5875 77.4984 29.5142 87.284 29.6383 97.803C29.6526 104.198 29.5858 110.593 29.4385 116.986C28.7359 117.644 26.8404 118.881 25.9714 119.494C23.9832 120.884 22.0459 122.346 20.163 123.876C11.7908 130.786 5.44831 140.091 0.104881 149.425C0.443794 144.371 0.165485 136.441 0.143841 131.121L0.0890061 99.5066C0.0511286 90.3444 -0.48511 81.9185 1.6041 72.9589C3.36072 65.4641 6.75815 58.452 11.552 52.428C21.1642 40.2171 34.6526 33.9157 49.8438 32.0962Z" fill="#005533"/>
<path d="M123.413 110.83C125.554 112.663 127.446 114.645 129.492 116.573C132.589 119.493 135.734 122.334 138.638 125.453C140.498 126.98 142.879 129.333 144.722 131.049C146.896 133.072 150.779 136.384 152.606 138.651C153.001 140.715 152.898 147.47 152.859 149.815C152.803 153.083 152.994 157.443 152.824 160.558C152.887 169.234 152.896 177.911 152.855 186.586C152.848 190.39 152.675 196.16 153.001 199.789C149.069 200.056 144.381 199.895 140.395 199.909C134.748 199.931 129.028 199.96 123.386 199.825C123.536 195.762 123.433 191.104 123.437 186.974L123.448 162.728C123.449 145.618 123.696 127.892 123.413 110.83Z" fill="#005533"/>
<path d="M76.4031 143.759C80.9738 141.595 86.8878 138.268 91.2446 136.396C91.0931 142.382 91.2817 148.469 91.2033 154.456C91.1771 156.456 91.3245 160.442 91.1484 162.311C91.2332 163.887 91.2099 165.67 91.1841 167.253C91.007 178.069 91.4852 189.021 91.191 199.817C89.9169 199.906 88.3947 199.931 87.1073 199.897C78.7329 199.675 69.9064 200.31 61.5742 199.789L61.6585 160.824C61.69 157.145 61.611 153.443 61.7066 149.77C66.3195 147.65 71.3298 146.187 76.4031 143.759Z" fill="#005533"/>
<path d="M578.419 76.8449C595.727 76.5016 624.794 73.0366 621.032 99.0522C620.063 105.765 616.19 109.031 610.365 111.833C613.314 116.847 621.619 131.156 622.928 136.082C620.374 136.284 617.816 136.393 615.254 136.408C613.34 136.402 611.084 136.402 609.707 135.014C606.652 130.079 601.311 119.35 598.717 114.018C595.255 113.743 591.46 113.842 587.959 113.86C588.214 119.945 588.062 130.062 587.851 136.155C583.924 136.293 579.992 136.311 576.062 136.214C575.816 132.552 575.951 127.395 575.951 123.621V101.737C575.954 98.7383 575.76 79.6028 576.291 77.6664C577.095 76.9329 577.175 77.1236 578.419 76.8449ZM587.933 86.6385L587.968 103.758C591.806 103.92 601 104.21 604.437 103.092C611.216 98.351 610.969 88.264 601.81 86.794C598.926 86.3305 595.199 86.5534 592.229 86.5798L587.933 86.6385Z" fill="#005533"/>
<path d="M765.905 108.45C769.101 102.899 779.237 80.533 782.711 77.6783C784.901 75.8797 790.673 76.9272 793.423 77.1736C793.998 81.5541 793.684 94.7453 793.622 100.158C793.487 111.871 794.042 124.513 793.684 136.068C789.476 136.332 786.38 136.332 782.207 136.006C781.869 129.827 782.18 120.825 782.216 114.529C782.122 108.79 782.169 103.051 782.359 97.3183C778.985 104.436 775.674 111.39 771.898 118.393C771.851 121.362 765.195 123.328 762.985 121.879C759.006 119.265 751.244 101.769 748.891 97.6939C749.29 103.706 749.181 110.645 749.169 116.724C749.158 122.964 749.284 129.798 749.002 135.991C746.86 136.311 739.937 136.795 738.112 135.724C737.287 132.957 737.267 80.6152 738 77.6929C738.752 76.977 739.324 77.0269 740.41 76.8597C743.221 76.7893 745.636 76.8656 748.43 77.247C750.566 79.5971 753.9 86.0988 755.552 89.1325C759.062 95.5374 762.513 101.978 765.905 108.45Z" fill="#005533"/>
<path d="M259.903 76.8741C264.021 76.7919 268.443 76.8037 272.575 76.8007C281.198 76.8242 291.257 76.0349 298.086 82.2638C304.764 88.3577 305.13 102.024 298.798 108.473C293.17 114.203 285.147 114.197 277.64 114.268L269.539 114.332C269.561 121.371 269.837 129.149 269.542 136.094C265.224 136.32 261.613 136.589 257.304 135.965C256.841 131.458 256.911 79.4618 257.486 77.6574C258.165 77.0853 259.011 77.0384 259.903 76.8741ZM269.603 104.597C274.755 104.559 284.794 105.507 288.431 102.288C290.398 99.8149 291.093 98.122 290.82 94.8183C289.918 83.9097 277.367 86.7 269.453 86.5357C269.574 92.5533 269.624 98.5768 269.603 104.597Z" fill="#005533"/>
<path d="M682.197 76.8362C685.091 76.7922 687.515 76.8509 690.396 77.156C692.759 79.3624 696.251 85.1247 698.17 88.1291L709.098 105.313C711.15 108.535 713.594 112.601 715.854 115.582C715.698 110.95 714.835 79.2626 716.229 77.5756C718.747 76.3785 723.924 76.9242 726.853 77.1091C727.284 81.8533 727.413 133.899 726.876 135.531C726.723 135.997 726.536 135.971 726.122 136.197C714.639 136.672 716.282 136.672 710.02 127.122C706.099 121.101 702.252 115.028 698.484 108.908C696.577 105.847 693.824 101.159 691.705 98.3775L691.447 98.0431C691.958 107.036 691.646 116.017 691.734 125.018C691.77 128.691 691.823 132.368 691.544 136.032C687.347 136.373 684.404 136.417 680.225 136.021C679.67 125.834 680.152 111.176 680.131 100.701L680.102 86.4274C680.099 84.0597 679.958 80.0049 680.287 77.8191C681.067 76.9418 680.865 77.2088 682.197 76.8362Z" fill="#005533"/>
<path d="M507.316 76.8596L515.913 77.0738C516.409 83.3789 516.098 94.6132 516.076 101.176C516.038 112.54 516.331 124.848 515.962 136.144C512.259 136.334 509.058 136.607 505.383 135.886C502.631 132.861 497.358 123.853 494.967 120.121C490.269 112.789 485.379 105.281 480.821 97.8699C480.968 101.907 481.307 133.97 480.565 135.657C479.719 136.226 478.603 136.129 477.526 136.176C475.758 136.255 471.435 136.622 469.87 135.651C469.541 135.448 469.501 135.193 469.499 134.53C469.437 115.7 469.273 96.7931 469.551 77.9716C469.685 77.8132 469.819 77.6518 469.953 77.4934C472.436 76.4195 477.225 76.9887 479.955 77.2616C482.575 80.0606 485.093 84.356 487.167 87.6567L497.577 104.113C499.761 107.543 502.574 112.182 505.16 115.213C504.814 111.475 504.39 80.577 505.078 77.6049C506.005 76.8655 505.964 77.0826 507.316 76.8596Z" fill="#005533"/>
<path d="M429.336 76.8684C431.868 76.8097 438.998 76.3286 441.223 77.4171C442.519 78.0537 444.844 84.8224 445.478 86.5329C447.903 93.0757 450.355 99.7359 452.836 106.27C456.436 116.134 461.048 125.907 463.795 136.032C459.419 136.305 456.018 136.596 451.636 135.839C449.615 131.96 448.645 128.445 447.372 124.282C445.019 124.182 442.462 124.211 440.091 124.191C434.177 124.147 428.262 124.176 422.349 124.279C421.36 127.439 419.733 133.224 418.007 135.915C415.906 136.27 407.572 137.115 406.446 135.143C406.647 132.382 411.153 121.415 412.389 118.091L422.351 90.9016C423.709 87.1784 425.576 81.5158 427.552 78.0127C427.781 77.6078 428.873 77.0826 429.336 76.8684ZM425.623 114.139C428.696 114.256 431.77 114.312 434.845 114.306C437.831 114.286 440.893 114.303 443.87 114.244C442.522 111.234 435.401 90.0625 434.592 89.2938C433.533 91.462 432.615 95.1735 431.76 97.5735C429.818 103.019 427.88 108.825 425.623 114.139Z" fill="#005533"/>
<path d="M376.774 76.2669C383.877 75.3104 391.569 76.8801 397.087 81.6948C399.225 83.5608 404.596 90.5085 402.09 93.1843C399.915 93.9559 393.723 93.5745 391.388 93.0904C388.102 87.0875 385.941 86.1163 379.103 85.9139C371.285 85.6821 367.626 94.6337 374.013 98.2454C381.357 102.397 392.785 101.889 399.701 107.752C405.833 112.951 406.215 123.909 400.826 129.809C395.515 135.513 388.827 136.698 381.429 137.044C371.241 137.282 358.6 133.122 356.767 121.436C356.073 117.011 367.655 118.129 368.804 120.224C371.627 125.373 374.929 127.227 380.751 127.119C384.199 126.998 388.137 126.734 390.543 123.93C397.66 115.761 384.435 112.346 378.877 111.085C368.516 108.699 356.785 104.589 358.704 91.6029C360.122 82.0087 367.559 77.1853 376.774 76.2669Z" fill="#005533"/>
<path d="M313.266 76.8802C324.712 76.7071 339.626 76.531 351.005 77.1031C351.15 79.2772 351.709 85.1041 350.646 86.7002C347.78 87.5892 326.776 87.111 321.938 87.287C322.21 91.5765 322.084 96.8342 322.089 101.197C330.692 101.599 340.161 101.08 349.001 101.435C349.112 102.482 349.615 110.201 348.549 110.621C345.013 112.012 323.806 110.248 322.03 111.516L322.015 112.326L322.07 126.13C332.035 126.239 342.001 126.288 351.966 126.28C352.396 129.962 352.325 132.318 351.985 135.968C347.15 136.443 313.957 136.763 310.839 135.613C310.457 134.665 310.328 133.471 310.335 132.447C310.446 115.195 310.381 97.9433 310.28 80.6944C310.275 79.6851 310.384 78.755 310.763 77.8161C311.571 77.0973 312.174 77.0944 313.266 76.8802Z" fill="#005533"/>
<path d="M633.943 76.8919C644.388 76.8655 660.589 76.3345 670.658 77.1501C671.019 79.2655 671.409 84.5086 670.561 86.4333C668.941 87.557 645.773 87.0788 641.937 87.1873C642.134 91.5942 642.075 96.7403 642.078 101.168C646.5 101.279 665.772 100.945 668.577 101.772C669.698 103.283 669.199 108.195 669.009 110.075C667.004 112.581 644.505 109.911 642.107 111.577L642.031 112.475L642.081 126.13C646.788 126.218 668.583 125.942 671.497 126.734C672.351 128.225 671.94 134.134 671.89 136.117C667.814 136.578 656.927 136.34 652.513 136.32C647.519 136.293 634.601 136.675 630.428 135.739C630.181 132.646 630.322 128.97 630.316 125.831C630.281 110.674 630.266 95.514 630.293 80.357C630.296 77.0592 631.085 77.2557 633.943 76.8919Z" fill="#005533"/>
<path d="M806.482 76.8332C809.37 76.7892 812.838 76.9917 815.773 77.0973C816.134 80.2161 815.966 84.3413 815.984 87.5393C816.025 96.5173 815.805 105.507 816.025 114.479C816.228 122.639 821.117 127.491 829.316 126.814C841.503 125.807 839.889 111.921 839.88 103.069L839.731 84.9897C839.713 82.9124 839.331 78.9809 840.623 77.4493C842.912 76.3784 848.895 76.9535 851.627 77.153C851.912 80.7912 851.78 85.4943 851.768 89.2234C851.73 98.1721 853.012 117.592 849.834 125.171C847.883 129.821 843.681 133.395 839.05 135.208C832.054 137.948 822.566 137.845 815.702 134.732C811.119 132.655 807.204 128.929 805.44 124.161C804.621 121.952 804.255 119.631 804.084 117.293C803.665 111.487 803.993 105.475 803.985 99.6391C803.973 92.844 803.679 85.9168 803.899 79.1393C803.917 78.5672 804.037 78.2005 804.272 77.6841C805.276 76.8215 804.982 77.0885 806.482 76.8332Z" fill="#005533"/>
<path d="M524.337 76.8535C526.202 76.7597 528.351 76.7802 530.223 76.8242C543.053 77.1117 556.21 76.4663 569.014 77.0707C569.195 80.4301 569.228 83.9832 568.896 87.3338C565.266 87.8443 556.157 87.6477 551.934 87.7621C552.445 97.412 552.04 111.343 552.058 121.309C552.061 126.165 552.122 131.162 551.955 136.003C548.052 136.378 544.123 136.39 540.217 136.041C539.948 129.815 540.122 122.392 540.114 116.093C540.052 106.587 540.06 97.0804 540.139 87.5743C536.59 87.4452 525.661 88.0408 523.12 87.0668C522.016 85.8462 522.816 81.5332 522.659 79.8169C522.489 77.9626 522.917 77.6457 524.337 76.8535Z" fill="#005533"/>
<path d="M264.965 184.31H257V157.957H265.318C267.821 157.957 269.964 158.485 271.745 159.54C273.526 160.587 274.891 162.092 275.841 164.057C276.79 166.012 277.265 168.354 277.265 171.082C277.265 173.827 276.786 176.191 275.828 178.172C274.87 180.145 273.476 181.664 271.644 182.728C269.812 183.783 267.586 184.31 264.965 184.31ZM260.125 181.479H264.763C266.897 181.479 268.666 181.059 270.069 180.218C271.472 179.378 272.518 178.181 273.207 176.628C273.896 175.076 274.24 173.227 274.24 171.082C274.24 168.955 273.9 167.123 273.219 165.588C272.539 164.044 271.522 162.86 270.17 162.036C268.817 161.204 267.132 160.788 265.116 160.788H260.125V181.479Z" fill="black"/>
<path d="M282.104 184.31V164.546H285.078V184.31H282.104ZM283.616 161.251C283.037 161.251 282.537 161.05 282.117 160.647C281.705 160.243 281.499 159.759 281.499 159.193C281.499 158.626 281.705 158.142 282.117 157.739C282.537 157.335 283.037 157.134 283.616 157.134C284.196 157.134 284.692 157.335 285.103 157.739C285.523 158.142 285.733 158.626 285.733 159.193C285.733 159.759 285.523 160.243 285.103 160.647C284.692 161.05 284.196 161.251 283.616 161.251Z" fill="black"/>
<path d="M298.339 192.134C296.902 192.134 295.667 191.945 294.634 191.568C293.601 191.199 292.739 190.71 292.05 190.101C291.37 189.5 290.828 188.857 290.425 188.171L292.794 186.472C293.063 186.832 293.403 187.244 293.815 187.707C294.226 188.179 294.789 188.587 295.503 188.93C296.226 189.281 297.171 189.457 298.339 189.457C299.902 189.457 301.191 189.071 302.208 188.299C303.225 187.527 303.733 186.318 303.733 184.671V180.656H303.481C303.262 181.016 302.951 181.462 302.548 181.994C302.153 182.517 301.582 182.985 300.834 183.397C300.095 183.8 299.095 184.001 297.835 184.001C296.272 184.001 294.869 183.624 293.626 182.869C292.391 182.114 291.412 181.016 290.689 179.575C289.975 178.134 289.618 176.384 289.618 174.325C289.618 172.3 289.967 170.538 290.664 169.036C291.361 167.527 292.332 166.36 293.575 165.536C294.819 164.704 296.255 164.288 297.885 164.288C299.146 164.288 300.145 164.503 300.885 164.932C301.632 165.352 302.204 165.832 302.599 166.373C303.002 166.905 303.313 167.342 303.531 167.685H303.834V164.546H306.707V184.876C306.707 186.575 306.329 187.956 305.573 189.02C304.825 190.092 303.817 190.877 302.548 191.375C301.288 191.881 299.885 192.134 298.339 192.134ZM298.238 181.273C299.431 181.273 300.439 180.995 301.263 180.437C302.086 179.879 302.712 179.077 303.141 178.031C303.569 176.984 303.783 175.732 303.783 174.273C303.783 172.849 303.573 171.593 303.153 170.503C302.733 169.414 302.111 168.56 301.288 167.943C300.465 167.325 299.448 167.016 298.238 167.016C296.978 167.016 295.928 167.342 295.088 167.994C294.256 168.646 293.63 169.521 293.21 170.619C292.798 171.717 292.592 172.935 292.592 174.273C292.592 175.646 292.802 176.86 293.222 177.915C293.651 178.962 294.281 179.785 295.113 180.386C295.953 180.978 296.995 181.273 298.238 181.273Z" fill="black"/>
<path d="M312.151 184.31V164.546H315.125V184.31H312.151ZM313.664 161.251C313.084 161.251 312.584 161.05 312.164 160.647C311.752 160.243 311.546 159.759 311.546 159.193C311.546 158.626 311.752 158.142 312.164 157.739C312.584 157.335 313.084 157.134 313.664 157.134C314.243 157.134 314.739 157.335 315.151 157.739C315.571 158.142 315.781 158.626 315.781 159.193C315.781 159.759 315.571 160.243 315.151 160.647C314.739 161.05 314.243 161.251 313.664 161.251Z" fill="black"/>
<path d="M328.991 164.546V167.119H318.96V164.546H328.991ZM321.883 159.81H324.858V178.648C324.858 179.506 324.979 180.15 325.223 180.579C325.475 180.999 325.794 181.282 326.181 181.428C326.576 181.565 326.992 181.634 327.428 181.634C327.756 181.634 328.025 181.617 328.235 181.582C328.445 181.539 328.613 181.505 328.739 181.479L329.344 184.207C329.142 184.285 328.861 184.362 328.5 184.439C328.138 184.525 327.681 184.568 327.126 184.568C326.286 184.568 325.463 184.383 324.656 184.014C323.858 183.645 323.194 183.084 322.665 182.329C322.144 181.574 321.883 180.622 321.883 179.472V159.81Z" fill="black"/>
<path d="M339.161 184.773C337.935 184.773 336.821 184.538 335.822 184.066C334.822 183.585 334.028 182.895 333.44 181.994C332.852 181.085 332.558 179.987 332.558 178.7C332.558 177.568 332.776 176.65 333.213 175.946C333.65 175.234 334.234 174.677 334.965 174.273C335.696 173.87 336.502 173.57 337.384 173.373C338.275 173.167 339.17 173.004 340.069 172.884C341.245 172.729 342.198 172.614 342.929 172.536C343.669 172.451 344.206 172.309 344.543 172.112C344.887 171.914 345.059 171.571 345.059 171.082V170.979C345.059 169.71 344.719 168.723 344.038 168.02C343.366 167.316 342.346 166.965 340.976 166.965C339.556 166.965 338.443 167.282 337.636 167.917C336.83 168.552 336.263 169.229 335.935 169.95L333.112 168.921C333.616 167.72 334.288 166.785 335.129 166.115C335.977 165.438 336.901 164.966 337.901 164.7C338.909 164.425 339.901 164.288 340.875 164.288C341.497 164.288 342.211 164.365 343.018 164.52C343.833 164.666 344.618 164.97 345.374 165.433C346.139 165.897 346.773 166.596 347.277 167.531C347.781 168.466 348.033 169.718 348.033 171.288V184.31H345.059V181.634H344.908C344.706 182.063 344.37 182.522 343.9 183.011C343.429 183.5 342.803 183.916 342.022 184.259C341.241 184.602 340.287 184.773 339.161 184.773ZM339.615 182.046C340.791 182.046 341.783 181.81 342.589 181.338C343.404 180.866 344.017 180.257 344.429 179.511C344.849 178.764 345.059 177.979 345.059 177.156V174.376C344.933 174.531 344.656 174.672 344.227 174.801C343.807 174.921 343.32 175.028 342.766 175.123C342.219 175.209 341.686 175.286 341.165 175.354C340.653 175.414 340.237 175.466 339.917 175.509C339.145 175.612 338.422 175.779 337.75 176.011C337.086 176.234 336.548 176.573 336.137 177.027C335.733 177.473 335.532 178.082 335.532 178.854C335.532 179.91 335.914 180.707 336.679 181.248C337.452 181.78 338.43 182.046 339.615 182.046Z" fill="black"/>
<path d="M356.436 157.957V184.31H353.462V157.957H356.436Z" fill="black"/>
<path d="M375.393 157.957V184.31H372.268V157.957H375.393Z" fill="black"/>
<path d="M394.968 168.972L392.296 169.744C392.128 169.289 391.88 168.848 391.553 168.419C391.233 167.981 390.796 167.621 390.242 167.338C389.687 167.055 388.978 166.913 388.112 166.913C386.928 166.913 385.94 167.192 385.151 167.75C384.369 168.299 383.979 168.998 383.979 169.847C383.979 170.602 384.247 171.198 384.785 171.636C385.323 172.073 386.163 172.438 387.306 172.729L390.179 173.45C391.91 173.879 393.199 174.535 394.048 175.419C394.896 176.294 395.321 177.422 395.321 178.803C395.321 179.935 395.001 180.948 394.363 181.84C393.733 182.732 392.851 183.435 391.716 183.95C390.582 184.465 389.263 184.722 387.759 184.722C385.785 184.722 384.151 184.285 382.857 183.41C381.563 182.535 380.744 181.256 380.4 179.575L383.222 178.854C383.491 179.918 384 180.716 384.747 181.248C385.503 181.78 386.491 182.046 387.709 182.046C389.095 182.046 390.196 181.745 391.011 181.145C391.834 180.536 392.246 179.807 392.246 178.957C392.246 178.271 392.011 177.696 391.54 177.233C391.07 176.761 390.347 176.41 389.372 176.178L386.146 175.406C384.373 174.977 383.071 174.312 382.239 173.411C381.416 172.502 381.004 171.365 381.004 170.001C381.004 168.886 381.311 167.9 381.924 167.042C382.546 166.184 383.39 165.511 384.457 165.022C385.533 164.533 386.751 164.288 388.112 164.288C390.028 164.288 391.532 164.717 392.624 165.575C393.724 166.433 394.506 167.565 394.968 168.972Z" fill="black"/>
<path d="M402.772 157.957V184.31H399.798V157.957H402.772Z" fill="black"/>
<path d="M413.916 184.773C412.689 184.773 411.576 184.538 410.576 184.066C409.576 183.585 408.782 182.895 408.194 181.994C407.606 181.085 407.312 179.987 407.312 178.7C407.312 177.568 407.53 176.65 407.967 175.946C408.404 175.234 408.988 174.677 409.719 174.273C410.45 173.87 411.256 173.57 412.139 173.373C413.029 173.167 413.924 173.004 414.823 172.884C415.999 172.729 416.953 172.614 417.684 172.536C418.423 172.451 418.961 172.309 419.297 172.112C419.641 171.914 419.814 171.571 419.814 171.082V170.979C419.814 169.71 419.473 168.723 418.793 168.02C418.121 167.316 417.1 166.965 415.73 166.965C414.31 166.965 413.197 167.282 412.391 167.917C411.584 168.552 411.017 169.229 410.689 169.95L407.866 168.921C408.371 167.72 409.043 166.785 409.883 166.115C410.731 165.438 411.656 164.966 412.655 164.7C413.664 164.425 414.655 164.288 415.63 164.288C416.251 164.288 416.965 164.365 417.772 164.52C418.587 164.666 419.372 164.97 420.129 165.433C420.893 165.897 421.527 166.596 422.032 167.531C422.536 168.466 422.788 169.718 422.788 171.288V184.31H419.814V181.634H419.662C419.461 182.063 419.125 182.522 418.654 183.011C418.184 183.5 417.558 183.916 416.776 184.259C415.995 184.602 415.041 184.773 413.916 184.773ZM414.369 182.046C415.546 182.046 416.537 181.81 417.343 181.338C418.158 180.866 418.772 180.257 419.183 179.511C419.603 178.764 419.814 177.979 419.814 177.156V174.376C419.687 174.531 419.41 174.672 418.982 174.801C418.562 174.921 418.074 175.028 417.52 175.123C416.974 175.209 416.44 175.286 415.919 175.354C415.407 175.414 414.991 175.466 414.672 175.509C413.899 175.612 413.176 175.779 412.504 176.011C411.84 176.234 411.303 176.573 410.891 177.027C410.488 177.473 410.286 178.082 410.286 178.854C410.286 179.91 410.668 180.707 411.433 181.248C412.206 181.78 413.185 182.046 414.369 182.046Z" fill="black"/>
<path d="M428.216 184.31V164.546H431.089V167.634H431.342C431.745 166.579 432.396 165.759 433.295 165.176C434.194 164.584 435.273 164.288 436.534 164.288C437.811 164.288 438.874 164.584 439.722 165.176C440.579 165.759 441.247 166.579 441.726 167.634H441.928C442.423 166.613 443.167 165.802 444.158 165.202C445.15 164.593 446.338 164.288 447.725 164.288C449.455 164.288 450.871 164.842 451.972 165.948C453.072 167.046 453.623 168.758 453.623 171.082V184.31H450.648V171.082C450.648 169.624 450.258 168.582 449.476 167.955C448.695 167.329 447.775 167.016 446.716 167.016C445.355 167.016 444.301 167.436 443.553 168.277C442.806 169.109 442.432 170.164 442.432 171.443V184.31H439.407V170.773C439.407 169.65 439.05 168.745 438.336 168.058C437.622 167.364 436.702 167.016 435.576 167.016C434.803 167.016 434.08 167.226 433.408 167.647C432.745 168.067 432.207 168.65 431.795 169.397C431.392 170.134 431.19 170.988 431.19 171.957V184.31H428.216Z" fill="black"/>
<path d="M459.061 184.31V164.546H462.035V184.31H459.061ZM460.573 161.251C459.993 161.251 459.493 161.05 459.073 160.647C458.661 160.243 458.456 159.759 458.456 159.193C458.456 158.626 458.661 158.142 459.073 157.739C459.493 157.335 459.993 157.134 460.573 157.134C461.153 157.134 461.648 157.335 462.06 157.739C462.48 158.142 462.69 158.626 462.69 159.193C462.69 159.759 462.48 160.243 462.06 160.647C461.648 161.05 461.153 161.251 460.573 161.251Z" fill="black"/>
<path d="M475.346 184.722C473.531 184.722 471.969 184.285 470.658 183.41C469.347 182.535 468.339 181.329 467.633 179.794C466.928 178.258 466.575 176.504 466.575 174.531C466.575 172.523 466.936 170.752 467.658 169.217C468.389 167.672 469.406 166.467 470.708 165.601C472.019 164.726 473.548 164.288 475.296 164.288C476.657 164.288 477.883 164.546 478.975 165.06C480.068 165.575 480.962 166.296 481.66 167.222C482.357 168.148 482.79 169.229 482.958 170.465H479.984C479.757 169.564 479.253 168.766 478.471 168.071C477.698 167.368 476.657 167.016 475.346 167.016C474.187 167.016 473.17 167.325 472.296 167.943C471.431 168.552 470.754 169.414 470.267 170.529C469.788 171.636 469.549 172.935 469.549 174.428C469.549 175.955 469.784 177.285 470.255 178.417C470.733 179.549 471.406 180.429 472.271 181.055C473.145 181.681 474.17 181.994 475.346 181.994C476.119 181.994 476.82 181.857 477.451 181.582C478.081 181.308 478.614 180.913 479.051 180.398C479.488 179.884 479.799 179.266 479.984 178.546H482.958C482.79 179.712 482.374 180.763 481.71 181.698C481.055 182.625 480.185 183.362 479.101 183.911C478.026 184.452 476.774 184.722 475.346 184.722Z" fill="black"/>
<path d="M497.69 184.31V157.957H513.267V160.788H500.815V169.693H512.46V172.523H500.815V181.479H513.468V184.31H497.69Z" fill="black"/>
<path d="M525.806 184.722C524.193 184.722 522.769 184.306 521.534 183.474C520.299 182.633 519.333 181.449 518.635 179.922C517.938 178.387 517.589 176.573 517.589 174.479C517.589 172.403 517.938 170.602 518.635 169.075C519.333 167.548 520.303 166.368 521.546 165.536C522.79 164.704 524.226 164.288 525.856 164.288C527.117 164.288 528.112 164.503 528.843 164.932C529.582 165.352 530.145 165.832 530.532 166.373C530.927 166.905 531.233 167.342 531.452 167.685H531.704V157.957H534.678V184.31H531.805V181.273H531.452C531.233 181.634 530.923 182.088 530.519 182.637C530.116 183.178 529.54 183.663 528.793 184.092C528.045 184.512 527.049 184.722 525.806 184.722ZM526.209 181.994C527.402 181.994 528.41 181.677 529.234 181.042C530.057 180.398 530.683 179.511 531.112 178.378C531.54 177.237 531.754 175.921 531.754 174.428C531.754 172.952 531.544 171.661 531.124 170.555C530.704 169.44 530.082 168.573 529.259 167.955C528.436 167.329 527.419 167.016 526.209 167.016C524.949 167.016 523.899 167.346 523.059 168.007C522.227 168.659 521.601 169.547 521.181 170.671C520.769 171.786 520.563 173.038 520.563 174.428C520.563 175.835 520.773 177.113 521.193 178.262C521.622 179.403 522.252 180.313 523.084 180.99C523.924 181.66 524.966 181.994 526.209 181.994Z" fill="black"/>
<path d="M552.737 176.229V164.546H555.711V184.31H552.737V180.965H552.536C552.082 181.968 551.376 182.822 550.418 183.525C549.461 184.22 548.251 184.568 546.789 184.568C545.579 184.568 544.504 184.297 543.563 183.757C542.622 183.208 541.882 182.384 541.345 181.286C540.807 180.18 540.538 178.786 540.538 177.104V164.546H543.512V176.898C543.512 178.34 543.907 179.489 544.697 180.347C545.495 181.205 546.512 181.634 547.747 181.634C548.486 181.634 549.238 181.441 550.003 181.055C550.775 180.669 551.422 180.077 551.943 179.279C552.473 178.481 552.737 177.465 552.737 176.229Z" fill="black"/>
<path d="M569.023 184.722C567.208 184.722 565.645 184.285 564.335 183.41C563.024 182.535 562.016 181.329 561.31 179.794C560.604 178.258 560.251 176.504 560.251 174.531C560.251 172.523 560.613 170.752 561.335 169.217C562.066 167.672 563.083 166.467 564.385 165.601C565.696 164.726 567.225 164.288 568.972 164.288C570.333 164.288 571.56 164.546 572.652 165.06C573.744 165.575 574.639 166.296 575.336 167.222C576.034 168.148 576.467 169.229 576.635 170.465H573.66C573.434 169.564 572.929 168.766 572.148 168.071C571.375 167.368 570.333 167.016 569.023 167.016C567.863 167.016 566.847 167.325 565.973 167.943C565.108 168.552 564.431 169.414 563.944 170.529C563.465 171.636 563.226 172.935 563.226 174.428C563.226 175.955 563.461 177.285 563.931 178.417C564.41 179.549 565.082 180.429 565.948 181.055C566.821 181.681 567.846 181.994 569.023 181.994C569.796 181.994 570.497 181.857 571.127 181.582C571.757 181.308 572.291 180.913 572.728 180.398C573.165 179.884 573.476 179.266 573.66 178.546H576.635C576.467 179.712 576.051 180.763 575.387 181.698C574.732 182.625 573.862 183.362 572.778 183.911C571.703 184.452 570.451 184.722 569.023 184.722Z" fill="black"/>
<path d="M586.679 184.773C585.452 184.773 584.339 184.538 583.339 184.066C582.339 183.585 581.545 182.895 580.957 181.994C580.369 181.085 580.075 179.987 580.075 178.7C580.075 177.568 580.293 176.65 580.73 175.946C581.167 175.234 581.751 174.677 582.482 174.273C583.213 173.87 584.02 173.57 584.902 173.373C585.792 173.167 586.687 173.004 587.586 172.884C588.762 172.729 589.716 172.614 590.447 172.536C591.186 172.451 591.724 172.309 592.06 172.112C592.404 171.914 592.577 171.571 592.577 171.082V170.979C592.577 169.71 592.236 168.723 591.556 168.02C590.884 167.316 589.863 166.965 588.493 166.965C587.074 166.965 585.96 167.282 585.154 167.917C584.347 168.552 583.78 169.229 583.452 169.95L580.63 168.921C581.134 167.72 581.806 166.785 582.646 166.115C583.494 165.438 584.419 164.966 585.418 164.7C586.427 164.425 587.418 164.288 588.393 164.288C589.014 164.288 589.728 164.365 590.535 164.52C591.35 164.666 592.135 164.97 592.892 165.433C593.656 165.897 594.29 166.596 594.795 167.531C595.299 168.466 595.551 169.718 595.551 171.288V184.31H592.577V181.634H592.425C592.224 182.063 591.888 182.522 591.417 183.011C590.947 183.5 590.321 183.916 589.539 184.259C588.758 184.602 587.805 184.773 586.679 184.773ZM587.132 182.046C588.309 182.046 589.3 181.81 590.107 181.338C590.921 180.866 591.535 180.257 591.946 179.511C592.367 178.764 592.577 177.979 592.577 177.156V174.376C592.451 174.531 592.173 174.672 591.745 174.801C591.325 174.921 590.837 175.028 590.283 175.123C589.737 175.209 589.203 175.286 588.682 175.354C588.17 175.414 587.754 175.466 587.435 175.509C586.662 175.612 585.939 175.779 585.267 176.011C584.603 176.234 584.066 176.573 583.654 177.027C583.251 177.473 583.049 178.082 583.049 178.854C583.049 179.91 583.431 180.707 584.196 181.248C584.969 181.78 585.948 182.046 587.132 182.046Z" fill="black"/>
<path d="M609.398 164.546V167.119H599.366V164.546H609.398ZM602.29 159.81H605.264V178.648C605.264 179.506 605.386 180.15 605.63 180.579C605.882 180.999 606.201 181.282 606.587 181.428C606.982 181.565 607.398 181.634 607.835 181.634C608.163 181.634 608.431 181.617 608.642 181.582C608.852 181.539 609.02 181.505 609.146 181.479L609.751 184.207C609.549 184.285 609.267 184.362 608.906 184.439C608.545 184.525 608.087 184.568 607.533 184.568C606.692 184.568 605.869 184.383 605.062 184.014C604.264 183.645 603.601 183.084 603.071 182.329C602.55 181.574 602.29 180.622 602.29 179.472V159.81Z" fill="black"/>
<path d="M613.871 184.31V164.546H616.846V184.31H613.871ZM615.384 161.251C614.804 161.251 614.304 161.05 613.884 160.647C613.472 160.243 613.267 159.759 613.267 159.193C613.267 158.626 613.472 158.142 613.884 157.739C614.304 157.335 614.804 157.134 615.384 157.134C615.963 157.134 616.459 157.335 616.871 157.739C617.291 158.142 617.501 158.626 617.501 159.193C617.501 159.759 617.291 160.243 616.871 160.647C616.459 161.05 615.963 161.251 615.384 161.251Z" fill="black"/>
<path d="M630.157 184.722C628.409 184.722 626.876 184.297 625.557 183.448C624.246 182.599 623.221 181.411 622.482 179.884C621.751 178.357 621.386 176.573 621.386 174.531C621.386 172.472 621.751 170.675 622.482 169.139C623.221 167.604 624.246 166.411 625.557 165.562C626.876 164.713 628.409 164.288 630.157 164.288C631.904 164.288 633.434 164.713 634.744 165.562C636.063 166.411 637.088 167.604 637.819 169.139C638.559 170.675 638.928 172.472 638.928 174.531C638.928 176.573 638.559 178.357 637.819 179.884C637.088 181.411 636.063 182.599 634.744 183.448C633.434 184.297 631.904 184.722 630.157 184.722ZM630.157 181.994C631.484 181.994 632.577 181.647 633.434 180.952C634.291 180.257 634.925 179.343 635.337 178.211C635.748 177.079 635.954 175.852 635.954 174.531C635.954 173.21 635.748 171.979 635.337 170.838C634.925 169.697 634.291 168.775 633.434 168.071C632.577 167.368 631.484 167.016 630.157 167.016C628.829 167.016 627.737 167.368 626.88 168.071C626.023 168.775 625.389 169.697 624.977 170.838C624.566 171.979 624.36 173.21 624.36 174.531C624.36 175.852 624.566 177.079 624.977 178.211C625.389 179.343 626.023 180.257 626.88 180.952C627.737 181.647 628.829 181.994 630.157 181.994Z" fill="black"/>
<path d="M646.442 172.421V184.31H643.468V164.546H646.342V167.634H646.594C647.047 166.63 647.736 165.824 648.66 165.215C649.585 164.597 650.778 164.288 652.239 164.288C653.55 164.288 654.697 164.563 655.68 165.112C656.663 165.652 657.427 166.476 657.974 167.582C658.52 168.68 658.793 170.07 658.793 171.751V184.31H655.819V171.957C655.819 170.405 655.424 169.195 654.634 168.329C653.844 167.454 652.76 167.016 651.383 167.016C650.433 167.016 649.585 167.226 648.837 167.647C648.097 168.067 647.514 168.68 647.085 169.487C646.657 170.293 646.442 171.271 646.442 172.421Z" fill="black"/>
<path d="M674.612 184.31V157.957H690.188V160.788H677.737V169.693H689.382V172.523H677.737V181.479H690.39V184.31H674.612Z" fill="black"/>
<path d="M703.282 184.722C701.468 184.722 699.905 184.285 698.594 183.41C697.284 182.535 696.275 181.329 695.57 179.794C694.864 178.258 694.511 176.504 694.511 174.531C694.511 172.523 694.872 170.752 695.595 169.217C696.326 167.672 697.342 166.467 698.645 165.601C699.955 164.726 701.484 164.288 703.232 164.288C704.593 164.288 705.82 164.546 706.912 165.06C708.004 165.575 708.899 166.296 709.596 167.222C710.293 168.148 710.726 169.229 710.894 170.465H707.92C707.693 169.564 707.189 168.766 706.408 168.071C705.635 167.368 704.593 167.016 703.282 167.016C702.123 167.016 701.106 167.325 700.233 167.943C699.367 168.552 698.691 169.414 698.204 170.529C697.725 171.636 697.485 172.935 697.485 174.428C697.485 175.955 697.72 177.285 698.191 178.417C698.67 179.549 699.342 180.429 700.207 181.055C701.081 181.681 702.106 181.994 703.282 181.994C704.055 181.994 704.757 181.857 705.387 181.582C706.017 181.308 706.551 180.913 706.987 180.398C707.424 179.884 707.735 179.266 707.92 178.546H710.894C710.726 179.712 710.31 180.763 709.647 181.698C708.991 182.625 708.122 183.362 707.038 183.911C705.962 184.452 704.711 184.722 703.282 184.722Z" fill="black"/>
<path d="M723.106 184.722C721.358 184.722 719.825 184.297 718.506 183.448C717.195 182.599 716.17 181.411 715.431 179.884C714.7 178.357 714.335 176.573 714.335 174.531C714.335 172.472 714.7 170.675 715.431 169.139C716.17 167.604 717.195 166.411 718.506 165.562C719.825 164.713 721.358 164.288 723.106 164.288C724.853 164.288 726.383 164.713 727.693 165.562C729.012 166.411 730.037 167.604 730.768 169.139C731.508 170.675 731.877 172.472 731.877 174.531C731.877 176.573 731.508 178.357 730.768 179.884C730.037 181.411 729.012 182.599 727.693 183.448C726.383 184.297 724.853 184.722 723.106 184.722ZM723.106 181.994C724.433 181.994 725.526 181.647 726.383 180.952C727.24 180.257 727.874 179.343 728.286 178.211C728.697 177.079 728.903 175.852 728.903 174.531C728.903 173.21 728.697 171.979 728.286 170.838C727.874 169.697 727.24 168.775 726.383 168.071C725.526 167.368 724.433 167.016 723.106 167.016C721.778 167.016 720.686 167.368 719.829 168.071C718.972 168.775 718.338 169.697 717.926 170.838C717.515 171.979 717.309 173.21 717.309 174.531C717.309 175.852 717.515 177.079 717.926 178.211C718.338 179.343 718.972 180.257 719.829 180.952C720.686 181.647 721.778 181.994 723.106 181.994Z" fill="black"/>
<path d="M750.129 168.972L747.457 169.744C747.289 169.289 747.041 168.848 746.713 168.419C746.394 167.981 745.957 167.621 745.403 167.338C744.848 167.055 744.138 166.913 743.273 166.913C742.088 166.913 741.101 167.192 740.311 167.75C739.53 168.299 739.139 168.998 739.139 169.847C739.139 170.602 739.408 171.198 739.946 171.636C740.484 172.073 741.324 172.438 742.466 172.729L745.34 173.45C747.07 173.879 748.36 174.535 749.209 175.419C750.057 176.294 750.481 177.422 750.481 178.803C750.481 179.935 750.162 180.948 749.524 181.84C748.894 182.732 748.011 183.435 746.877 183.95C745.743 184.465 744.424 184.722 742.92 184.722C740.946 184.722 739.312 184.285 738.018 183.41C736.724 182.535 735.905 181.256 735.56 179.575L738.383 178.854C738.652 179.918 739.16 180.716 739.908 181.248C740.664 181.78 741.651 182.046 742.87 182.046C744.256 182.046 745.356 181.745 746.171 181.145C746.995 180.536 747.406 179.807 747.406 178.957C747.406 178.271 747.171 177.696 746.701 177.233C746.23 176.761 745.508 176.41 744.533 176.178L741.307 175.406C739.534 174.977 738.232 174.312 737.4 173.411C736.577 172.502 736.165 171.365 736.165 170.001C736.165 168.886 736.472 167.9 737.085 167.042C737.707 166.184 738.551 165.511 739.618 165.022C740.694 164.533 741.912 164.288 743.273 164.288C745.188 164.288 746.692 164.717 747.785 165.575C748.885 166.433 749.666 167.565 750.129 168.972Z" fill="black"/>
<path d="M756.874 191.722C756.37 191.722 755.92 191.679 755.526 191.593C755.131 191.516 754.858 191.439 754.706 191.362L755.463 188.685C756.185 188.874 756.824 188.943 757.378 188.891C757.933 188.84 758.424 188.587 758.853 188.132C759.289 187.686 759.689 186.961 760.05 185.957L760.604 184.413L753.446 164.546H756.672L762.016 180.296H762.217L767.561 164.546H770.787L762.57 187.193C762.201 188.213 761.743 189.058 761.197 189.728C760.651 190.405 760.016 190.907 759.294 191.233C758.58 191.559 757.773 191.722 756.874 191.722Z" fill="black"/>
<path d="M788.424 168.972L785.752 169.744C785.584 169.289 785.336 168.848 785.009 168.419C784.69 167.981 784.253 167.621 783.698 167.338C783.144 167.055 782.434 166.913 781.568 166.913C780.384 166.913 779.397 167.192 778.607 167.75C777.826 168.299 777.435 168.998 777.435 169.847C777.435 170.602 777.704 171.198 778.241 171.636C778.779 172.073 779.619 172.438 780.762 172.729L783.635 173.45C785.366 173.879 786.656 174.535 787.504 175.419C788.353 176.294 788.777 177.422 788.777 178.803C788.777 179.935 788.458 180.948 787.819 181.84C787.189 182.732 786.307 183.435 785.173 183.95C784.038 184.465 782.719 184.722 781.216 184.722C779.241 184.722 777.607 184.285 776.313 183.41C775.019 182.535 774.2 181.256 773.856 179.575L776.679 178.854C776.948 179.918 777.456 180.716 778.204 181.248C778.96 181.78 779.947 182.046 781.165 182.046C782.551 182.046 783.652 181.745 784.467 181.145C785.29 180.536 785.702 179.807 785.702 178.957C785.702 178.271 785.467 177.696 784.996 177.233C784.526 176.761 783.803 176.41 782.829 176.178L779.602 175.406C777.83 174.977 776.527 174.312 775.696 173.411C774.872 172.502 774.461 171.365 774.461 170.001C774.461 168.886 774.767 167.9 775.381 167.042C776.002 166.184 776.847 165.511 777.914 165.022C778.989 164.533 780.207 164.288 781.568 164.288C783.484 164.288 784.988 164.717 786.08 165.575C787.181 166.433 787.962 167.565 788.424 168.972Z" fill="black"/>
<path d="M801.672 164.546V167.119H791.641V164.546H801.672ZM794.565 159.81H797.539V178.648C797.539 179.506 797.661 180.15 797.904 180.579C798.156 180.999 798.476 181.282 798.862 181.428C799.257 181.565 799.673 181.634 800.11 181.634C800.437 181.634 800.706 181.617 800.916 181.582C801.126 181.539 801.294 181.505 801.42 181.479L802.025 184.207C801.824 184.285 801.542 184.362 801.181 184.439C800.82 184.525 800.362 184.568 799.807 184.568C798.967 184.568 798.144 184.383 797.337 184.014C796.539 183.645 795.875 183.084 795.346 182.329C794.825 181.574 794.565 180.622 794.565 179.472V159.81Z" fill="black"/>
<path d="M814.054 184.722C812.189 184.722 810.58 184.302 809.228 183.461C807.883 182.612 806.846 181.428 806.115 179.91C805.392 178.383 805.031 176.607 805.031 174.582C805.031 172.558 805.392 170.773 806.115 169.229C806.846 167.677 807.862 166.467 809.165 165.601C810.475 164.726 812.004 164.288 813.752 164.288C814.76 164.288 815.756 164.46 816.739 164.803C817.722 165.146 818.616 165.704 819.423 166.476C820.229 167.239 820.872 168.251 821.351 169.512C821.83 170.773 822.069 172.326 822.069 174.171V175.457H807.148V172.832H819.045C819.045 171.717 818.826 170.722 818.389 169.847C817.961 168.972 817.348 168.281 816.55 167.775C815.76 167.269 814.827 167.016 813.752 167.016C812.567 167.016 811.542 167.316 810.677 167.917C809.82 168.509 809.16 169.281 808.698 170.233C808.236 171.185 808.005 172.206 808.005 173.296V175.046C808.005 176.538 808.257 177.804 808.761 178.842C809.274 179.871 809.984 180.656 810.891 181.196C811.798 181.728 812.853 181.994 814.054 181.994C814.836 181.994 815.541 181.883 816.172 181.66C816.81 181.428 817.36 181.085 817.822 180.63C818.284 180.167 818.642 179.592 818.894 178.906L821.767 179.729C821.464 180.724 820.956 181.599 820.242 182.354C819.528 183.101 818.646 183.684 817.596 184.104C816.545 184.516 815.365 184.722 814.054 184.722Z" fill="black"/>
<path d="M826.594 184.31V164.546H829.467V167.634H829.719C830.122 166.579 830.773 165.759 831.672 165.176C832.571 164.584 833.651 164.288 834.911 164.288C836.188 164.288 837.251 164.584 838.1 165.176C838.957 165.759 839.625 166.579 840.103 167.634H840.305C840.801 166.613 841.544 165.802 842.536 165.202C843.527 164.593 844.716 164.288 846.102 164.288C847.833 164.288 849.249 164.842 850.349 165.948C851.45 167.046 852 168.758 852 171.082V184.31H849.026V171.082C849.026 169.624 848.635 168.582 847.854 167.955C847.073 167.329 846.153 167.016 845.094 167.016C843.733 167.016 842.678 167.436 841.931 168.277C841.183 169.109 840.809 170.164 840.809 171.443V184.31H837.785V170.773C837.785 169.65 837.427 168.745 836.713 168.058C835.999 167.364 835.079 167.016 833.953 167.016C833.18 167.016 832.458 167.226 831.786 167.647C831.122 168.067 830.584 168.65 830.173 169.397C829.769 170.134 829.568 170.988 829.568 171.957V184.31H826.594Z" fill="black"/>
</svg>
